<svg xmlns="http://www.w3.org/2000/svg" viewBox="0 0 367.89 83.07"><defs><style>.cls-1,.cls-2,.cls-3{fill:#fff;}.cls-1{fill-rule:evenodd;}.cls-3{stroke:#1e5f9d;stroke-miterlimit:10;stroke-width:0.25px;}</style></defs><g id="Capa_2" data-name="Capa 2"><g id="Capa_1-2" data-name="Capa 1"><path class="cls-1" d="M13.82.52v8.8c0,2-.08,4-1.64,5.51A7.48,7.48,0,0,1,7,16.57a7.5,7.5,0,0,1-5.19-1.74C.26,13.31.18,11.32.18,9.32V.52H4.25V8.75c0,2,.14,4.25,2.75,4.25s2.76-2.22,2.76-4.25V.52Z"/><polygon class="cls-1" points="19.5 0.52 23.56 0.52 31 10.08 31.05 10.08 31.05 0.52 35.11 0.52 35.11 16.16 31.05 16.16 23.61 6.58 23.56 6.58 23.56 16.16 19.5 16.16 19.5 0.52"/><rect class="cls-2" x="40.87" y="0.52" width="4.08" height="15.64"/><polygon class="cls-1" points="57.26 10.02 61.05 0.52 65.47 0.52 58.79 16.16 55.64 16.16 49.07 0.52 53.48 0.52 57.26 10.02"/><polygon class="cls-1" points="73.66 3.97 73.66 6.58 78.24 6.58 78.24 10.02 73.66 10.02 73.66 12.72 78.49 12.72 78.49 16.16 69.6 16.16 69.6 0.52 78.49 0.52 78.49 3.97 73.66 3.97"/><path class="cls-1" d="M88.17,7.54h.4c1.33,0,2.82-.26,2.82-1.95S89.9,3.64,88.57,3.64h-.4Zm8.94,8.62H92.05l-3.84-6h0v6h-4V.52h6.07c3.08,0,5.42,1.47,5.42,4.82a4.2,4.2,0,0,1-3.42,4.41Z"/><path class="cls-1" d="M109.9,4.55a4.26,4.26,0,0,0-2.69-1c-.76,0-1.75.43-1.75,1.3s1.1,1.27,1.8,1.5l1,.31c2.17.65,3.85,1.74,3.85,4.27a5.32,5.32,0,0,1-1.61,4.21,6.93,6.93,0,0,1-4.44,1.47,9.72,9.72,0,0,1-5.5-1.78l1.75-3.28a5.53,5.53,0,0,0,3.6,1.62c1,0,2-.48,2-1.58s-1.59-1.53-2.47-1.78c-2.55-.73-4.22-1.39-4.22-4.42A5.06,5.06,0,0,1,106.62.11a10.8,10.8,0,0,1,4.9,1.28Z"/><rect class="cls-2" x="117.2" y="0.52" width="4.06" height="15.64"/><path class="cls-1" d="M131.09,12.72H132c2.43,0,4.5-1.33,4.5-4.38A4.11,4.11,0,0,0,132,4h-.95ZM127,.52h5.77a7.82,7.82,0,1,1,0,15.64H127Z"/><path class="cls-1" d="M152.55,5.35h0l-1.69,5h3.39Zm-2.85,8.09-1.07,2.72h-4.31l6-15.64h4.43l5.89,15.64h-4.34l-1-2.72Z"/><path class="cls-1" d="M169.09,12.72H170c2.43,0,4.51-1.33,4.51-4.38A4.12,4.12,0,0,0,170.06,4h-1ZM165,.52h5.77a7.82,7.82,0,1,1,0,15.64H165Z"/><path class="cls-1" d="M198,7.7h.67c1.47,0,2.92,0,2.92-1.91s-1.35-2-2.92-2H198ZM194,.52h6.21c3.36,0,5.68,1.56,5.68,5.15s-2,5.3-5.53,5.3H198v5.19H194Z"/><polygon class="cls-1" points="214.84 3.97 214.84 6.58 219.42 6.58 219.42 10.02 214.84 10.02 214.84 12.72 219.67 12.72 219.67 16.16 210.78 16.16 210.78 0.52 219.67 0.52 219.67 3.97 214.84 3.97"/><path class="cls-1" d="M229.35,12.72h.91c2.42,0,4.5-1.33,4.5-4.38A4.11,4.11,0,0,0,230.3,4h-1ZM225.28.52h5.77a7.82,7.82,0,1,1,0,15.64h-5.77Z"/><path class="cls-1" d="M250.8,5.35h0l-1.67,5h3.38ZM248,13.44l-1.08,2.72h-4.31l6-15.64H253l5.89,15.64h-4.33l-1-2.72Z"/><path class="cls-1" d="M278.88,7.43c0,2.28-.2,4.22-1.59,6.17a7.56,7.56,0,0,1-6.45,3.07c-4.92,0-8.34-3.33-8.34-8.25C262.5,3.34,266,0,271,0a7.26,7.26,0,0,1,7,4.38L274.17,6a3.54,3.54,0,0,0-3.38-2.49c-2.67,0-4.06,2.55-4.06,4.93s1.46,4.9,4.13,4.9a3,3,0,0,0,3.27-2.72h-3.32V7.43Z"/><path class="cls-1" d="M287.3,8.07a4.42,4.42,0,1,0,8.83,0,4.42,4.42,0,0,0-8.83,0m13.06,0a8.65,8.65,0,0,1-17.29,0c0-4.73,4.14-8,8.65-8S300.36,3.32,300.36,8.05Z"/><path class="cls-1" d="M320.94,7.43c0,2.28-.2,4.22-1.59,6.17a7.55,7.55,0,0,1-6.45,3.07c-4.91,0-8.33-3.33-8.33-8.25C304.57,3.34,308,0,313.05,0a7.26,7.26,0,0,1,7.05,4.38L316.24,6a3.55,3.55,0,0,0-3.39-2.49c-2.67,0-4.05,2.55-4.05,4.93s1.45,4.9,4.12,4.9a3,3,0,0,0,3.28-2.72h-3.33V7.43Z"/><rect class="cls-2" x="325.93" y="0.52" width="4.06" height="15.64"/><path class="cls-1" d="M346.91,5.77a4.34,4.34,0,0,0-3.54-1.72,4.12,4.12,0,0,0-4.18,4.33,4.06,4.06,0,0,0,4.23,4.25A4.6,4.6,0,0,0,346.91,11v4.88a11.4,11.4,0,0,1-3.56.72,8.69,8.69,0,0,1-5.88-2.31A7.61,7.61,0,0,1,335,8.36a8.2,8.2,0,0,1,2.31-5.73A8.47,8.47,0,0,1,343.21.11a9.51,9.51,0,0,1,3.7.78Z"/><path class="cls-1" d="M359.36,5.35h0l-1.68,5H361Zm-2.83,8.09-1.08,2.72h-4.31l6-15.64h4.43l5.9,15.64h-4.34l-1-2.72Z"/><polygon class="cls-1" points="0.26 31.5 4.32 31.5 11.77 41.06 11.81 41.06 11.81 31.5 15.87 31.5 15.87 47.13 11.81 47.13 4.37 37.55 4.32 37.55 4.32 47.13 0.26 47.13 0.26 31.5"/><path class="cls-1" d="M28.45,36.33h0l-1.68,5h3.38Zm-2.83,8.09-1.08,2.71H20.23l6-15.63h4.44l5.89,15.63H32.23l-1-2.71Z"/><path class="cls-1" d="M52.11,36.74A4.4,4.4,0,0,0,48.55,35a4.12,4.12,0,0,0-4.17,4.34,4.06,4.06,0,0,0,4.23,4.24A4.66,4.66,0,0,0,52.11,42v4.87a11.6,11.6,0,0,1-3.58.73,8.77,8.77,0,0,1-5.87-2.3,7.63,7.63,0,0,1-2.51-5.91,8.19,8.19,0,0,1,2.3-5.73,8.51,8.51,0,0,1,5.95-2.52,9.46,9.46,0,0,1,3.71.79Z"/><rect class="cls-2" x="57.74" y="31.5" width="4.07" height="15.64"/><path class="cls-1" d="M71,39a4.42,4.42,0,1,0,8.83,0A4.43,4.43,0,0,0,71,39m13.07,0a8.65,8.65,0,0,1-17.29,0c0-4.73,4.14-8,8.64-8S84.07,34.3,84.07,39Z"/><polygon class="cls-1" points="89.06 31.5 93.13 31.5 100.57 41.06 100.61 41.06 100.61 31.5 104.68 31.5 104.68 47.13 100.61 47.13 93.17 37.55 93.13 37.55 93.13 47.13 89.06 47.13 89.06 31.5"/><path class="cls-1" d="M117.27,36.33h0l-1.69,5h3.38Zm-2.85,8.09-1.08,2.71H109l6-15.63h4.44l5.89,15.63H121l-1-2.71Z"/><polygon class="cls-1" points="133.81 43.69 138.67 43.69 138.67 47.13 129.74 47.13 129.74 31.5 133.81 31.5 133.81 43.69"/><path class="cls-3" d="M.12,62.47V83H367.77V62.47Zm56.44,7.2c-.1.13-.43.16-.49,0,.06-.64.06-1.07-.28-1.28a2.76,2.76,0,0,0-1.44-.27h-1c-.45,0-.5,0-.67.55l-.89,2.89c-.13.42-.13.44.29.44h.82c1.11,0,1.38-.11,1.73-.81l.21-.4c.13-.13.45-.1.49,0-.15.38-.34,1-.55,1.55s-.32,1.14-.41,1.53c-.11.1-.43.1-.48,0l0-.39c.07-.76-.24-.82-1.23-.82h-.78c-.41,0-.47,0-.59.43L50.68,75c-.23.79-.35,1.27-.22,1.54s.37.35,1.52.35c1.5,0,2.06-.08,3.16-1.64.13-.09.41-.07.48.09a8.81,8.81,0,0,1-1.1,2.19c-.48,0-1.09,0-1.7,0H49.1c-.66,0-1.26,0-2.06,0-.15-.07-.13-.35,0-.44l.51-.06c.72-.07.86-.25,1.34-1.72l1.76-5.64c.42-1.32.4-1.57-.32-1.73l-.36-.1c-.13-.09-.06-.32.08-.41.32,0,.66,0,1,0h4.06c1,0,1.76,0,2.1,0A20.65,20.65,0,0,0,56.56,69.67Zm13.32-.52c-.6,1.6-2.07,6-2.21,6.55a7.55,7.55,0,0,0-.21.74c0,.13,0,.26.13.26a4.36,4.36,0,0,0,1.51-1.16c.15,0,.24.09.24.28a4.13,4.13,0,0,1-2.85,1.92.5.5,0,0,1-.54-.49,3.33,3.33,0,0,1,.26-1l.5-1.36h0c-.89,1.31-2.11,2.88-3.66,2.88-.67,0-1-.49-1-1.25a6,6,0,0,1,2-3.85,4.56,4.56,0,0,1,2.8-1.3,1,1,0,0,1,.79.43l1.06-3.08c.25-.7.26-.91,0-1.06l-.36-.24a.21.21,0,0,1,.06-.28,9.91,9.91,0,0,1,2.28-.42c.06,0,.12.09.12.12C70.45,67.57,70.28,68.12,69.88,69.15Zm9.9,8.59a.48.48,0,0,1-.45-.67l.94-2.43h0c-1,1.27-2.73,3.1-3.73,3.1a.72.72,0,0,1-.72-.73,2.35,2.35,0,0,1,.17-.74l1.35-3.44c.1-.25.08-.39,0-.39-.29,0-1,.59-1.39,1a.25.25,0,0,1-.24-.3,4.37,4.37,0,0,1,2.87-1.81.6.6,0,0,1,.58.55,1.88,1.88,0,0,1-.08.41l-1.57,3.9c-.1.27,0,.41.11.41s.58-.3,1.11-.81a16.11,16.11,0,0,0,2.84-4.39,1.53,1.53,0,0,1,.46-.07,1,1,0,0,1,.75.3c-.37,1-1.15,3-1.77,4.63-.09.25-.09.41.07.41a4,4,0,0,0,1.45-1.11.25.25,0,0,1,.28.28A4.46,4.46,0,0,1,79.78,77.74Zm13.7-4.53a.42.42,0,0,1-.45-.42c0-.34,0-.83-.39-.83s-.68.3-1.11,1a6,6,0,0,0-1,3c0,.68.27.91.63.91a2.46,2.46,0,0,0,1.62-.92.26.26,0,0,1,.28.29,3.86,3.86,0,0,1-2.8,1.57c-.81,0-1.34-.58-1.34-1.66a5.63,5.63,0,0,1,1.72-3.58,3.46,3.46,0,0,1,2.42-1.16c.78,0,1.31.43,1.3,1A.88.88,0,0,1,93.48,73.21ZM105,76.74a3.44,3.44,0,0,0,1.52-1,.27.27,0,0,1,.25.29,4.3,4.3,0,0,1-2.82,1.7.49.49,0,0,1-.5-.49,1.92,1.92,0,0,1,.14-.61l.55-1.44h0c-1.06,1.44-2.57,2.54-3.46,2.54a.86.86,0,0,1-.81-.91,6.94,6.94,0,0,1,1.76-3.45,7.07,7.07,0,0,1,1.91-1.49,2.33,2.33,0,0,1,1.18-.33,1,1,0,0,1,.34.1,1.12,1.12,0,0,1,.33.3l.39-.86A.75.75,0,0,1,106,71a1,1,0,0,1,.85.37c-.42,1-1.39,3.48-2,5.06C104.8,76.67,104.87,76.74,105,76.74Zm15.75-7.59c-.61,1.6-2.06,6-2.21,6.55a7.55,7.55,0,0,0-.21.74c0,.13,0,.26.12.26a4.27,4.27,0,0,0,1.51-1.16c.15,0,.25.09.25.28a4.18,4.18,0,0,1-2.85,1.92.5.5,0,0,1-.54-.49,3.56,3.56,0,0,1,.25-1l.5-1.36h0c-.89,1.31-2.11,2.88-3.64,2.88-.67,0-1-.49-1-1.25a6,6,0,0,1,2-3.85,4.61,4.61,0,0,1,2.81-1.3,1,1,0,0,1,.79.43l1.05-3.08c.26-.7.27-.91,0-1.06l-.36-.24a.21.21,0,0,1,.06-.28,9.81,9.81,0,0,1,2.27-.42c.06,0,.13.09.13.12C121.27,67.57,121.1,68.12,120.71,69.15Zm9.89,7.55a3.31,3.31,0,0,1-2.4,1,1.78,1.78,0,0,1-1.88-2,5.21,5.21,0,0,1,1.58-3.39,3.18,3.18,0,0,1,2.31-1,1.78,1.78,0,0,1,1.87,2.07A4.88,4.88,0,0,1,130.6,76.7Zm12.89-3.29c-.18,0-.24-.17-.3-.45s-.15-.45-.3-.45-.53.34-1,1.17a31.79,31.79,0,0,0-1.81,3.82.54.54,0,0,1-.53.24c-.3,0-.83-.09-.7-.52.34-1,1.1-3.09,1.52-4.46.08-.25.06-.4-.09-.4-.33,0-.82.43-1.19.85a.25.25,0,0,1-.24-.3,2.76,2.76,0,0,1,2.1-1.57c.81,0,.68.88.44,1.58l-.53,1.57h.09a16.91,16.91,0,0,1,1.35-2.17c.48-.61.89-1,1.35-1s.69.43.69.85S144,73.41,143.49,73.41Zm11.19,3.33a3.4,3.4,0,0,0,1.53-1,.26.26,0,0,1,.24.29,4.25,4.25,0,0,1-2.82,1.7.48.48,0,0,1-.49-.49,1.92,1.92,0,0,1,.14-.61l.55-1.44h-.05c-1.05,1.44-2.57,2.54-3.44,2.54a.86.86,0,0,1-.83-.91,7.43,7.43,0,0,1,3.67-4.94,2.34,2.34,0,0,1,1.19-.33,1,1,0,0,1,.34.1,1.08,1.08,0,0,1,.31.3l.4-.86a.77.77,0,0,1,.31-.06,1,1,0,0,1,.85.37c-.43,1-1.39,3.48-2,5.06C154.54,76.67,154.6,76.74,154.68,76.74ZM180,69.15c-.61,1.6-2.06,6-2.22,6.55-.1.35-.18.58-.21.74s0,.26.13.26a4.27,4.27,0,0,0,1.51-1.16c.14,0,.24.09.24.28a4.16,4.16,0,0,1-2.84,1.92.51.51,0,0,1-.55-.49,3.56,3.56,0,0,1,.25-1l.51-1.36h0c-.9,1.31-2.13,2.88-3.66,2.88-.66,0-1-.49-1-1.25a5.92,5.92,0,0,1,2-3.85,4.54,4.54,0,0,1,2.79-1.3,1,1,0,0,1,.79.43l1.07-3.08c.22-.7.26-.91,0-1.06l-.36-.24a.21.21,0,0,1,.05-.28,10,10,0,0,1,2.28-.42c.06,0,.12.09.12.12C180.58,67.57,180.41,68.12,180,69.15Zm7.25,5.8a3.27,3.27,0,0,0-.14,1c0,.56.24.86.66.86a2.81,2.81,0,0,0,1.8-1,.25.25,0,0,1,.24.3,3.52,3.52,0,0,1-2.88,1.59,1.46,1.46,0,0,1-1.43-1.65,5.43,5.43,0,0,1,2.16-3.93,3.5,3.5,0,0,1,2.12-.82,1.15,1.15,0,0,1,1.21,1C191,73.76,188.94,74.5,187.26,75Zm20.87,0a3.33,3.33,0,0,0-.13,1c0,.56.25.86.67.86a2.8,2.8,0,0,0,1.78-1,.25.25,0,0,1,.24.3,3.49,3.49,0,0,1-2.88,1.59,1.46,1.46,0,0,1-1.43-1.65,5.4,5.4,0,0,1,2.16-3.93,3.5,3.5,0,0,1,2.13-.82,1.17,1.17,0,0,1,1.21,1C211.88,73.76,209.8,74.5,208.13,75Zm17.32-5.8c-.59,1.6-2.06,6-2.21,6.55a7.55,7.55,0,0,0-.21.74c0,.13,0,.26.12.26a4.11,4.11,0,0,0,1.52-1.16c.14,0,.24.09.24.28a4.16,4.16,0,0,1-2.85,1.92.51.51,0,0,1-.55-.49,3.65,3.65,0,0,1,.26-1l.5-1.36h0c-.89,1.31-2.12,2.88-3.65,2.88-.67,0-1-.49-1-1.25a6,6,0,0,1,2-3.85,4.54,4.54,0,0,1,2.8-1.3,1,1,0,0,1,.79.43l1.07-3.08c.23-.7.25-.91,0-1.06l-.37-.24a.2.2,0,0,1,.07-.28,9.81,9.81,0,0,1,2.27-.42c.06,0,.12.09.12.12C226,67.57,225.85,68.12,225.45,69.15Zm9.91,8.59a.48.48,0,0,1-.46-.67l.94-2.43h0c-1,1.27-2.74,3.1-3.74,3.1a.75.75,0,0,1-.73-.73,2.18,2.18,0,0,1,.19-.74l1.34-3.44c.09-.25.08-.39,0-.39-.29,0-1,.59-1.39,1a.25.25,0,0,1-.24-.3,4.33,4.33,0,0,1,2.88-1.81.61.61,0,0,1,.59.55,1.66,1.66,0,0,1-.1.41L233,76.2c-.11.27,0,.41.1.41s.58-.3,1.11-.81a16.65,16.65,0,0,0,2.85-4.39,1.37,1.37,0,0,1,.45-.07,1,1,0,0,1,.76.3c-.37,1-1.16,3-1.79,4.63-.07.25-.07.41.08.41A4.09,4.09,0,0,0,238,75.57a.24.24,0,0,1,.27.28A4.44,4.44,0,0,1,235.36,77.74Zm13.69-4.53a.42.42,0,0,1-.45-.42c0-.34,0-.83-.38-.83s-.69.3-1.12,1a5.87,5.87,0,0,0-.95,3c0,.68.26.91.62.91a2.44,2.44,0,0,0,1.62-.92c.19,0,.3.12.27.29a3.82,3.82,0,0,1-2.79,1.57c-.81,0-1.33-.58-1.33-1.66a5.53,5.53,0,0,1,1.72-3.58,3.42,3.42,0,0,1,2.4-1.16c.8,0,1.31.43,1.3,1A.88.88,0,0,1,249.05,73.21Zm11.48,3.53a3.44,3.44,0,0,0,1.52-1,.26.26,0,0,1,.24.29,4.26,4.26,0,0,1-2.81,1.7.48.48,0,0,1-.5-.49,1.74,1.74,0,0,1,.15-.61l.53-1.44h0c-1.06,1.44-2.58,2.54-3.45,2.54a.86.86,0,0,1-.83-.91,7,7,0,0,1,1.79-3.45A6.88,6.88,0,0,1,259,71.89a2.32,2.32,0,0,1,1.17-.33,1.07,1.07,0,0,1,.36.1,1.08,1.08,0,0,1,.31.3l.4-.86a.75.75,0,0,1,.3-.06,1,1,0,0,1,.86.37c-.43,1-1.4,3.48-1.95,5.06C260.38,76.67,260.44,76.74,260.53,76.74Zm15.75-7.59c-.6,1.6-2.06,6-2.21,6.55a7.55,7.55,0,0,0-.21.74c0,.13,0,.26.13.26a4.17,4.17,0,0,0,1.5-1.16c.15,0,.25.09.25.28a4.15,4.15,0,0,1-2.86,1.92.5.5,0,0,1-.53-.49,3.26,3.26,0,0,1,.25-1l.51-1.36h-.05c-.89,1.31-2.11,2.88-3.64,2.88-.66,0-1.05-.49-1.05-1.25a6,6,0,0,1,2-3.85,4.59,4.59,0,0,1,2.8-1.3,1,1,0,0,1,.79.43L275,68.69c.24-.7.26-.91,0-1.06l-.37-.24a.2.2,0,0,1,.07-.28,9.6,9.6,0,0,1,2.27-.42c.05,0,.12.09.12.12C276.84,67.57,276.69,68.12,276.28,69.15Zm9.88,7.55a3.25,3.25,0,0,1-2.39,1,1.79,1.79,0,0,1-1.89-2,5.28,5.28,0,0,1,1.6-3.39,3.18,3.18,0,0,1,2.31-1,1.76,1.76,0,0,1,1.85,2.07A4.88,4.88,0,0,1,286.16,76.7Zm12.9-3.29c-.17,0-.23-.17-.3-.45s-.15-.45-.3-.45-.53.34-1,1.17a31.67,31.67,0,0,0-1.82,3.82c-.08.18-.28.24-.52.24s-.82-.09-.69-.52c.32-1,1.09-3.09,1.51-4.46.07-.25.06-.4-.09-.4-.33,0-.82.43-1.19.85a.24.24,0,0,1-.23-.3,2.73,2.73,0,0,1,2.09-1.57c.81,0,.68.88.43,1.58l-.53,1.57h.1a16.91,16.91,0,0,1,1.35-2.17c.5-.61.9-1,1.35-1s.7.43.7.85S299.53,73.41,299.06,73.41ZM306.88,75a3,3,0,0,0-.13,1c0,.56.24.86.66.86a2.79,2.79,0,0,0,1.79-1,.24.24,0,0,1,.23.3,3.49,3.49,0,0,1-2.87,1.59,1.46,1.46,0,0,1-1.43-1.65,5.36,5.36,0,0,1,2.16-3.93,3.48,3.48,0,0,1,2.12-.82,1.15,1.15,0,0,1,1.21,1C310.62,73.76,308.56,74.5,306.88,75ZM320.14,73a.4.4,0,0,1-.33-.18c-.43-.49-.67-.66-1.06-.66a.49.49,0,0,0-.52.47c0,.5.5,1,.78,1.3a2.36,2.36,0,0,1,.64,1.61,2.06,2.06,0,0,1-.84,1.56,2.68,2.68,0,0,1-1.7.61,1.14,1.14,0,0,1-1.21-1c0-.33.24-.73.57-.73a.45.45,0,0,1,.33.21c.41.43.73.69,1.16.69a.58.58,0,0,0,.61-.55c0-.5-.48-1-.76-1.4a2.55,2.55,0,0,1-.64-1.45,2.14,2.14,0,0,1,.87-1.61,2.38,2.38,0,0,1,1.37-.58,1.15,1.15,0,0,1,1.21,1A.63.63,0,0,1,320.14,73Z"/></g></g></svg>