<svg xmlns="http://www.w3.org/2000/svg" viewBox="0 0 331.91 240.97"><defs><style>.cls-1,.cls-2{fill:#fff;}.cls-1,.cls-3{fill-rule:evenodd;}.cls-3{fill:#00609c;stroke:#1e5f9d;stroke-miterlimit:10;stroke-width:0.1px;}</style></defs><g id="Capa_2" data-name="Capa 2"><g id="Capa_1-2" data-name="Capa 1"><path class="cls-1" d="M166,153A76.49,76.49,0,0,0,166,0V11h0a65.49,65.49,0,0,1,0,131h0ZM166,0a76.49,76.49,0,0,0,0,153h0V142a65.49,65.49,0,0,1,0-131V0Z"/><path class="cls-1" d="M202.87,27.17A61.81,61.81,0,0,0,117,39.32h0l25.59,15.46h0c5.68-9.78,13.81-16.9,23.94-19.34,22.72-5.54,21.42,16.75,9.92,18.33C166.13,55.14,160,47.45,160,47.45l-7.55,6.83S166.49,73.61,191.58,70c24.08-3.45,26-31.92,11.29-42.78Z"/><path class="cls-1" d="M165.13,138.17a61.89,61.89,0,0,1-50.61-95.61h-.08L140.61,58.3v.08c-6.83,14.37-6.54,31.41-4.74,44s10.21,18.54,14.66,16,5.25-11,4.75-25.67a166.36,166.36,0,0,0-3.45-27.6h0l13.3,8v65.06Z"/><path class="cls-1" d="M214.94,39.11A61.93,61.93,0,0,1,192.88,132h0L182,120.2h0v16h0a61.63,61.63,0,0,1-13.09,2.09h0V75.92l10.64,6.47c5,30.62,13.66,32.92,13.66,32.92,15-18.33,7.62-44.5,7.91-44.5,6.54-1.29,20.35-13.87,13.87-31.7Z"/><rect class="cls-2" y="222.49" width="331.91" height="18.48"/><path class="cls-1" d="M12.65,166.71v8c0,1.8-.07,3.59-1.51,5a6.72,6.72,0,0,1-4.67,1.58,6.83,6.83,0,0,1-4.67-1.58c-1.37-1.37-1.44-3.16-1.44-5v-8H4v7.47C4,176,4.1,178,6.47,178S9,176,9,174.18v-7.47Z"/><polygon class="cls-1" points="17.76 166.71 21.42 166.71 28.18 175.34 28.18 175.34 28.18 166.71 31.85 166.71 31.85 180.87 28.18 180.87 21.5 172.17 21.42 172.17 21.42 180.87 17.76 180.87 17.76 166.71"/><rect class="cls-2" x="37.09" y="166.71" width="3.67" height="14.16"/><polygon class="cls-1" points="51.83 175.34 55.28 166.71 59.31 166.71 53.27 180.87 50.39 180.87 44.5 166.71 48.45 166.71 51.83 175.34"/><polygon class="cls-1" points="66.64 169.8 66.64 172.17 70.81 172.17 70.81 175.34 66.64 175.34 66.64 177.71 71.02 177.71 71.02 180.87 62.97 180.87 62.97 166.71 71.02 166.71 71.02 169.8 66.64 169.8"/><path class="cls-1" d="M81.24,169.66a1.53,1.53,0,0,1,1.43,1.65A1.55,1.55,0,0,1,81.24,173v4.67l2,3.23h4.6l-4.46-5.82a3.77,3.77,0,0,0,3.09-4c0-3-2.08-4.39-4.89-4.39h-.35Zm-1.44-.15h.35a5.19,5.19,0,0,1,1.09.15v-2.95H76.13v14.16H79.8v-5.46h0l1.44,2.23V173a6.7,6.7,0,0,1-1.09.06H79.8Z"/><path class="cls-1" d="M99.42,170.38a4,4,0,0,0-2.44-.94c-.72,0-1.58.36-1.58,1.15s1,1.15,1.65,1.37l.93.28c1.94.58,3.45,1.59,3.45,3.82a4.89,4.89,0,0,1-1.43,3.8,6.33,6.33,0,0,1-4,1.37,8.77,8.77,0,0,1-5-1.65l1.58-3a5.24,5.24,0,0,0,3.24,1.51c.86,0,1.79-.43,1.79-1.44s-1.44-1.36-2.22-1.65c-2.31-.65-3.81-1.22-3.81-4a4.55,4.55,0,0,1,4.81-4.75,9.8,9.8,0,0,1,4.46,1.15Z"/><rect class="cls-2" x="105.96" y="166.71" width="3.67" height="14.16"/><path class="cls-1" d="M121,170.09a4,4,0,0,1,0,7.4v3.31a7.14,7.14,0,0,0,6.25-7.05,7.06,7.06,0,0,0-6.25-7Zm-2.45-.29h.87a5.46,5.46,0,0,1,1.58.29v-3.31c-.29,0-.65-.07-.94-.07h-5.17v14.16h5.17c.29,0,.65-.07.94-.07v-3.31a6,6,0,0,1-1.66.22h-.79Z"/><path class="cls-1" d="M139.39,175.55h-1.51v2.8h2.52l.93,2.52h3.88l-5.32-14.16h-2v4.39h0Zm-1.51,0h-1.51l1.51-4.45h0v-4.39h-2l-5.39,14.16h3.88l1-2.52h2.52Z"/><path class="cls-1" d="M155.28,170.09a4,4,0,0,1,0,7.4v3.31a7.06,7.06,0,0,0,0-14Zm-2.45-.29h.87a5.46,5.46,0,0,1,1.58.29v-3.31c-.29,0-.58-.07-.94-.07h-5.17v14.16h5.17c.36,0,.65-.07.94-.07v-3.31a5.79,5.79,0,0,1-1.58.22h-.87Z"/><path class="cls-1" d="M180.51,169.73c.93.07,1.65.43,1.65,1.72a1.53,1.53,0,0,1-1.65,1.73v2.95h.43c3.24,0,5-1.44,5-4.75s-2.08-4.67-5.17-4.67h-.29Zm-1.65-.07h.64a4.58,4.58,0,0,1,1,.07v-3h-5.32v14.16h3.67v-4.74h1.65v-2.95h-1.65Z"/><polygon class="cls-1" points="194.03 169.8 194.03 172.17 198.19 172.17 198.19 175.34 194.03 175.34 194.03 177.71 198.41 177.71 198.41 180.87 190.36 180.87 190.36 166.71 198.41 166.71 198.41 169.8 194.03 169.8"/><path class="cls-1" d="M209.62,170.09a4,4,0,0,1,0,7.4v3.31a7.14,7.14,0,0,0,6.26-7.05,7.06,7.06,0,0,0-6.26-7Zm-2.44-.29H208a5.34,5.34,0,0,1,1.58.29v-3.31c-.28,0-.64-.07-.93-.07h-5.18v14.16h5.18c.29,0,.65-.07.93-.07v-3.31a5.83,5.83,0,0,1-1.65.22h-.79Z"/><path class="cls-1" d="M228,175.55h-1.51v2.8H229l.94,2.52h3.88l-5.32-14.16h-2v4.39h0Zm-1.51,0H225l1.51-4.45h0v-4.39h-2l-5.39,14.16H223l1-2.52h2.52Z"/><path class="cls-1" d="M251.89,173a9.63,9.63,0,0,1-1.43,5.6,6.9,6.9,0,0,1-5.82,2.73,7.14,7.14,0,0,1-7.55-7.47c0-4.53,3.08-7.55,7.69-7.55a6.5,6.5,0,0,1,6.32,3.95l-3.45,1.43a3.17,3.17,0,0,0-3.09-2.22c-2.37,0-3.67,2.3-3.67,4.46s1.3,4.38,3.75,4.38a2.64,2.64,0,0,0,2.94-2.44h-2.94V173Z"/><path class="cls-1" d="M263.47,169.8a4,4,0,0,1,3.95,3.74,4.06,4.06,0,0,1-3.95,4.24v3.52a7.52,7.52,0,0,0,7.83-7.76c0-4.31-3.73-7.26-7.83-7.26Zm0,0h0v-3.52h0c-4,0-7.84,2.95-7.84,7.26a7.53,7.53,0,0,0,7.84,7.76h0v-3.52h0a4.06,4.06,0,0,1-4-4.24A4,4,0,0,1,263.47,169.8Z"/><path class="cls-1" d="M289.85,173a8.64,8.64,0,0,1-1.44,5.6,6.89,6.89,0,0,1-5.82,2.73,7.15,7.15,0,0,1-7.55-7.47c0-4.53,3.17-7.55,7.7-7.55a6.6,6.6,0,0,1,6.39,3.95l-3.52,1.43a3.14,3.14,0,0,0-3-2.22c-2.44,0-3.67,2.3-3.67,4.46s1.3,4.38,3.67,4.38a2.71,2.71,0,0,0,3-2.44h-3V173Z"/><rect class="cls-2" x="294.38" y="166.71" width="3.67" height="14.16"/><path class="cls-1" d="M313.29,171.45a3.87,3.87,0,0,0-3.17-1.51,3.85,3.85,0,0,0,0,7.7,4.08,4.08,0,0,0,3.17-1.51v4.45a10.32,10.32,0,0,1-3.24.65,7.9,7.9,0,0,1-5.24-2.08,6.87,6.87,0,0,1-2.31-5.32,7.29,7.29,0,0,1,2.09-5.18,7.56,7.56,0,0,1,5.39-2.3,8.87,8.87,0,0,1,3.31.72Z"/><path class="cls-1" d="M326.09,175.55H324.5v2.8H327l.94,2.52h4l-5.32-14.16H324.5v4.39h.07Zm-1.59,0H323l1.51-4.45h0v-4.39h-1.94l-5.46,14.16H321l1-2.52h2.51Z"/><polygon class="cls-1" points="103.66 194.67 107.33 194.67 114.08 203.22 114.08 203.22 114.08 194.67 117.75 194.67 117.75 208.76 114.08 208.76 107.4 200.06 107.33 200.06 107.33 208.76 103.66 208.76 103.66 194.67"/><path class="cls-1" d="M130.62,203.44h-1.51v2.88h2.52l.93,2.44h3.88l-5.32-14.09h-2V199h0Zm-1.51,0H127.6l1.51-4.45h0v-4.32h-2l-5.39,14.09h3.88l.93-2.44h2.59Z"/><path class="cls-1" d="M150.46,199.34a3.9,3.9,0,0,0-3.23-1.5,3.7,3.7,0,0,0-3.74,3.88,3.62,3.62,0,0,0,3.81,3.81,4.24,4.24,0,0,0,3.16-1.44v4.38a10.43,10.43,0,0,1-3.23.65,8.24,8.24,0,0,1-5.32-2.08,7.38,7.38,0,0,1-.15-10.42,7.56,7.56,0,0,1,5.39-2.3,8.86,8.86,0,0,1,3.31.71Z"/><rect class="cls-2" x="155.57" y="194.67" width="3.66" height="14.09"/><path class="cls-1" d="M171.45,197.69a4,4,0,0,1,4,3.74,4.06,4.06,0,0,1-4,4.24v3.53a7.54,7.54,0,0,0,7.84-7.77c0-4.31-3.81-7.19-7.84-7.19Zm0,0h0v-3.45h0c-4.1,0-7.84,2.88-7.84,7.19a7.54,7.54,0,0,0,7.84,7.77h0v-3.53h0a4.06,4.06,0,0,1-4-4.24A4,4,0,0,1,171.45,197.69Z"/><polygon class="cls-1" points="183.75 194.67 187.41 194.67 194.17 203.22 194.17 203.22 194.17 194.67 197.84 194.67 197.84 208.76 194.17 208.76 187.48 200.06 187.41 200.06 187.41 208.76 183.75 208.76 183.75 194.67"/><path class="cls-1" d="M210.7,203.44h-1.51v2.88h2.52l.93,2.44h3.89l-5.32-14.09h-2V199h0Zm-1.51,0h-1.51l1.51-4.45h0v-4.32h-1.94l-5.46,14.09h3.88l1-2.44h2.51Z"/><polygon class="cls-1" points="224.15 205.6 228.53 205.6 228.53 208.76 220.48 208.76 220.48 194.67 224.15 194.67 224.15 205.6"/><path class="cls-3" d="M44.21,236.44a16.81,16.81,0,0,0-1.8.07.27.27,0,0,1,0-.43h.43c.65-.07.8-.29,1.23-1.58l1.58-5.11c.43-1.22.36-1.43-.29-1.58l-.29-.07c-.14-.07-.07-.29.08-.36H46a4.54,4.54,0,0,0,.93.07h2.73a13.31,13.31,0,0,0,1.95-.07,15.43,15.43,0,0,0-.65,2c-.07.08-.36.15-.43,0,.07-.64.07-1-.29-1.22A3.6,3.6,0,0,0,49,228h-.87c-.43,0-.5.07-.64.5l-.79,2.59c-.15.43-.15.43.28.43h.72c1,0,1.22-.15,1.58-.72l.15-.36c.14-.14.43-.14.5,0a13.72,13.72,0,0,0-.5,1.37c-.15.57-.29,1.08-.36,1.43a.57.57,0,0,1-.51,0l.07-.35c.08-.72-.21-.79-1.14-.79H46.8c-.43,0-.43.07-.58.42l-.57,1.73c-.22.72-.29,1.15-.15,1.37s.29.36,1.37.36a2.57,2.57,0,0,0,2.8-1.51.32.32,0,0,1,.44.07,7.48,7.48,0,0,1-.94,2c-.43,0-1-.07-1.58-.07H44.21Z"/><path class="cls-3" d="M60.31,231.33c.22,0,.36.44.22,1a6.67,6.67,0,0,1-1.37,2.3c-.07.15-.21.22-.28.36v.65c.43-.5.86-1.08,1.22-1.58h.07l-.5,1.22a2.39,2.39,0,0,0-.22.93c0,.22.14.44.51.44a4,4,0,0,0,2.58-1.73c0-.22-.07-.29-.21-.29A3.5,3.5,0,0,1,61,235.72c-.14,0-.14-.14-.14-.21a2.35,2.35,0,0,1,.21-.72c.14-.44,1.44-4.46,2-5.9.28-.93.5-1.44.71-2.08,0-.08-.07-.08-.14-.15-.57.07-1.72.29-2,.36-.07.08-.15.22-.07.29l.36.22c.21.14.21.36,0,.93l-1,2.8a.91.91,0,0,0-.72-.36,2.42,2.42,0,0,0-1.29.36v1.22a3,3,0,0,1,.64-.64A1.53,1.53,0,0,1,60.31,231.33ZM58.88,235a4.29,4.29,0,0,1-1.59,1c-.14,0-.21-.07-.21-.22a5.16,5.16,0,0,1,.79-1.94,9.88,9.88,0,0,1,1-1.37v-1.22a4.1,4.1,0,0,0-1.23.8,5.59,5.59,0,0,0-1.79,3.45c0,.71.36,1.15.93,1.15a3.23,3.23,0,0,0,2.09-1Z"/><path class="cls-3" d="M69.73,232.2c.07-.21.07-.36-.07-.36s-.86.57-1.22.93c-.15,0-.29-.07-.22-.29a3.77,3.77,0,0,1,2.59-1.58.48.48,0,0,1,.5.43,1.29,1.29,0,0,1-.07.44l-1.44,3.52c-.07.22,0,.36.15.36a3.28,3.28,0,0,0,1-.72,15.21,15.21,0,0,0,2.52-4h.43c.29,0,.65.08.72.22-.36.94-1.08,2.73-1.65,4.17-.07.29-.07.43.07.43a4.43,4.43,0,0,0,1.29-1c.15,0,.29,0,.29.22A4.23,4.23,0,0,1,72,236.66c-.29,0-.58-.29-.43-.58l.86-2.23h0c-.86,1.15-2.52,2.81-3.38,2.81a.64.64,0,0,1-.64-.65,3.23,3.23,0,0,1,.14-.72Z"/><path class="cls-3" d="M80.23,235.15a5,5,0,0,1,1.58-3.24,3,3,0,0,1,2.15-1c.72,0,1.23.36,1.16.94a.79.79,0,0,1-.8.72.41.41,0,0,1-.43-.36c0-.36,0-.79-.36-.79s-.57.29-1,.86a5.51,5.51,0,0,0-.86,2.73c0,.58.28.79.57.79a2.2,2.2,0,0,0,1.51-.79.19.19,0,0,1,.21.22,3.34,3.34,0,0,1-2.51,1.44C80.73,236.66,80.23,236.15,80.23,235.15Z"/><path class="cls-3" d="M94,231.62a.55.55,0,0,1,.57.51,6.44,6.44,0,0,1-1.51,2.58h0v.51a8.46,8.46,0,0,0,.79-.87h0l-.5,1.3a3.42,3.42,0,0,0-.14.57.48.48,0,0,0,.5.44,4,4,0,0,0,2.52-1.51c0-.22-.08-.29-.22-.29a2.73,2.73,0,0,1-1.36.86c-.08,0-.15-.07-.08-.21.51-1.44,1.37-3.67,1.8-4.61a1,1,0,0,0-.79-.28c-.14,0-.21,0-.29.07l-.36.72c-.07-.08-.21-.22-.28-.22a.6.6,0,0,0-.29-.14,2.25,2.25,0,0,0-1.08.28c-.07.08-.14.15-.22.15v.72C93.53,231.77,93.74,231.62,94,231.62Zm-.94,3.09a4.08,4.08,0,0,1-1.36,1.08c-.14,0-.14-.14-.14-.28a6.19,6.19,0,0,1,1.5-3.31h0v-.72a9.57,9.57,0,0,0-1.5,1.22A6.63,6.63,0,0,0,90,235.86a.74.74,0,0,0,.72.8,4.1,4.1,0,0,0,2.37-1.44Z"/><path class="cls-3" d="M106.18,231.33c.28,0,.36.44.21,1a5.57,5.57,0,0,1-1.36,2.3c-.07.15-.22.22-.29.36v.65a12,12,0,0,0,1.22-1.58H106l-.43,1.22a2.83,2.83,0,0,0-.28.93.48.48,0,0,0,.5.44,3.82,3.82,0,0,0,2.59-1.73c0-.22-.08-.29-.22-.29a3.49,3.49,0,0,1-1.36,1.08c-.15,0-.15-.14-.15-.21a3,3,0,0,0,.22-.72c.14-.44,1.43-4.46,2-5.9.36-.93.5-1.44.72-2.08,0-.08,0-.08-.07-.15-.65.07-1.73.29-2.09.36a.46.46,0,0,0-.07.29l.36.22c.22.14.22.36,0,.93l-.93,2.8a1,1,0,0,0-.72-.36,2.65,2.65,0,0,0-1.37.36v1.22a6.3,6.3,0,0,1,.65-.64A1.46,1.46,0,0,1,106.18,231.33ZM104.74,235a3.8,3.8,0,0,1-1.58,1c-.07,0-.15-.07-.15-.22a4.1,4.1,0,0,1,.8-1.94,5.62,5.62,0,0,1,.93-1.37v-1.22a5.15,5.15,0,0,0-1.22.8,5.56,5.56,0,0,0-1.8,3.45c0,.71.36,1.15,1,1.15a3,3,0,0,0,2-1Z"/><path class="cls-3" d="M116.53,232h.07c.36-.43.65-.66.86-.66.37,0,.44.44.44.8a7.66,7.66,0,0,1-1.15,3.23l-.22.22v.93a3.21,3.21,0,0,0,1.3-.79,4.44,4.44,0,0,0,1.36-3,1.61,1.61,0,0,0-1.73-1.8,2.2,2.2,0,0,0-.93.15Zm-.79,4.16c-.36,0-.5-.29-.5-.71a7.7,7.7,0,0,1,1.29-3.45v-.94a4.1,4.1,0,0,0-1.15.72,4.94,4.94,0,0,0-1.44,3.09,1.65,1.65,0,0,0,1.73,1.8,3.31,3.31,0,0,0,.86-.15v-.93C116.24,236,116,236.15,115.74,236.15Z"/><path class="cls-3" d="M127.53,232.27l-.5,1.44h.14a11.3,11.3,0,0,1,1.22-1.94c.43-.58.79-.87,1.22-.87s.58.36.58.72-.29,1.08-.72,1.08c-.14,0-.22-.14-.29-.36s-.14-.43-.28-.43-.44.29-.94,1.08a22.91,22.91,0,0,0-1.58,3.45.55.55,0,0,1-.51.22c-.28,0-.71-.07-.64-.51a40.58,40.58,0,0,0,1.36-4c.08-.22.08-.36-.07-.36s-.72.43-1.08.79c-.07,0-.21-.15-.21-.29a2.63,2.63,0,0,1,1.94-1.37C127.89,230.9,127.74,231.7,127.53,232.27Z"/><path class="cls-3" d="M139,231.62c.21,0,.43.15.57.51a8.67,8.67,0,0,1-1.51,2.58h0v.51a8.12,8.12,0,0,0,.72-.87h.08l-.51,1.3a3.42,3.42,0,0,0-.14.57.46.46,0,0,0,.43.44,4.11,4.11,0,0,0,2.59-1.51c0-.22-.15-.29-.22-.29a3,3,0,0,1-1.36.86c-.08,0-.15-.07-.08-.21.51-1.44,1.37-3.67,1.73-4.61-.07-.21-.5-.28-.72-.28s-.21,0-.29.07l-.36.72c-.07-.08-.21-.22-.28-.22a.59.59,0,0,0-.36-.14,2,2,0,0,0-1,.28c-.07.08-.14.15-.22.15v.72C138.38,231.77,138.6,231.62,139,231.62Zm-.94,3.09c-.64.58-1.15,1.08-1.36,1.08s-.22-.14-.22-.28A7.5,7.5,0,0,1,138,232.2H138v-.72a7.47,7.47,0,0,0-1.51,1.22,6,6,0,0,0-1.58,3.16.74.74,0,0,0,.72.8,4.32,4.32,0,0,0,2.37-1.44Z"/><path class="cls-3" d="M159.73,231.33c.29,0,.36.44.22,1a6.78,6.78,0,0,1-1.36,2.3c-.08.15-.22.22-.29.36v.65c.43-.5.86-1.08,1.22-1.58h.07l-.5,1.22a2.39,2.39,0,0,0-.22.93.44.44,0,0,0,.5.44,4,4,0,0,0,2.59-1.73c0-.22-.07-.29-.21-.29a3.5,3.5,0,0,1-1.37,1.08c-.14,0-.14-.14-.14-.21s.07-.36.21-.72,1.44-4.46,2-5.9c.28-.93.43-1.44.64-2.08,0-.08-.07-.08-.07-.15-.57.07-1.65.29-2,.36-.08.08-.15.22-.08.29l.37.22c.21.14.21.36,0,.93l-1,2.8a.89.89,0,0,0-.72-.36,2.42,2.42,0,0,0-1.29.36v1.22a3,3,0,0,1,.64-.64A1.53,1.53,0,0,1,159.73,231.33ZM158.3,235a4.29,4.29,0,0,1-1.59,1,.23.23,0,0,1-.21-.22,5.16,5.16,0,0,1,.79-1.94,9.88,9.88,0,0,1,1-1.37v-1.22a4,4,0,0,0-1.23.8,5.59,5.59,0,0,0-1.79,3.45c0,.71.36,1.15.93,1.15a3.23,3.23,0,0,0,2.09-1Z"/><path class="cls-3" d="M170.81,231.33c.21,0,.28.23.28.37a1.48,1.48,0,0,1-.5,1l-.5.5v.58c1.15-.43,2.23-1,2.23-1.94,0-.51-.44-.94-1.16-.94a3.24,3.24,0,0,0-1.07.22v.72c.28-.28.57-.51.72-.51Zm-.72,5v-.65a3.65,3.65,0,0,0,.93-.72c.14,0,.22.15.22.29A4.21,4.21,0,0,1,170.09,236.3Zm0-3.1a8.53,8.53,0,0,1-1.08.44,4.74,4.74,0,0,1,1-1.73l.08-.07v-.72a5,5,0,0,0-.8.5,4.94,4.94,0,0,0-1.94,3.53c0,.79.37,1.51,1.3,1.51a4,4,0,0,0,1.44-.36v-.65a3.34,3.34,0,0,1-.72.14c-.36,0-.58-.28-.58-.79a2.42,2.42,0,0,1,.15-.86,11.25,11.25,0,0,0,1.15-.36Z"/><path class="cls-3" d="M189.64,231.33c.21,0,.29.23.29.37a1.5,1.5,0,0,1-.51,1,3.37,3.37,0,0,1-.5.5v.58c1.15-.43,2.23-1,2.23-1.94a1,1,0,0,0-1.08-.94,3.68,3.68,0,0,0-1.15.22v.72a1.75,1.75,0,0,1,.72-.51Zm-.72,5v-.65a3.34,3.34,0,0,0,.93-.72c.15,0,.22.15.22.29A4.07,4.07,0,0,1,188.92,236.3Zm0-3.1a8.53,8.53,0,0,1-1.08.44,4.93,4.93,0,0,1,1-1.73l.07-.07v-.72a5,5,0,0,0-2.73,4c0,.79.36,1.51,1.29,1.51a4,4,0,0,0,1.44-.36v-.65a3.23,3.23,0,0,1-.72.14c-.36,0-.57-.28-.57-.79a2.7,2.7,0,0,1,.14-.86,10.52,10.52,0,0,0,1.15-.36Z"/><path class="cls-3" d="M200.64,231.33c.29,0,.43.44.29,1a6.67,6.67,0,0,1-1.37,2.3l-.36.36v.65a13.91,13.91,0,0,0,1.3-1.58h0l-.44,1.22a2.55,2.55,0,0,0-.21.93.44.44,0,0,0,.5.44,4,4,0,0,0,2.59-1.73.26.26,0,0,0-.29-.29,3.07,3.07,0,0,1-1.36,1.08c-.08,0-.08-.14-.08-.21a2.47,2.47,0,0,1,.22-.72c.07-.44,1.44-4.46,1.94-5.9.36-.93.5-1.44.79-2.08,0-.08-.07-.08-.14-.15-.58.07-1.73.29-2,.36-.07.08-.14.22-.07.29l.36.22c.22.14.14.36-.07.93l-.93,2.8a.92.92,0,0,0-.72-.36,2.65,2.65,0,0,0-1.37.36v1.22a6,6,0,0,1,.72-.64A1.75,1.75,0,0,1,200.64,231.33ZM199.2,235a4.22,4.22,0,0,1-1.51,1c-.14,0-.21-.07-.21-.22a5.08,5.08,0,0,1,.78-1.94c.29-.5.65-.94.94-1.37v-1.22a4.92,4.92,0,0,0-1.15.8,5.23,5.23,0,0,0-1.8,3.45c0,.71.36,1.15.94,1.15a2.89,2.89,0,0,0,2-1Z"/><path class="cls-3" d="M210.13,232.2c.07-.21.07-.36-.07-.36-.29,0-.87.57-1.22.93-.15,0-.29-.07-.22-.29a3.77,3.77,0,0,1,2.59-1.58.49.49,0,0,1,.5.43,1.29,1.29,0,0,1-.07.44l-1.44,3.52c-.07.22,0,.36.07.36s.58-.29,1-.72a14.13,14.13,0,0,0,2.59-4h.43c.29,0,.57.08.64.22-.28.94-1,2.73-1.58,4.17-.07.29-.07.43.07.43s.94-.64,1.3-1c.14,0,.29,0,.29.22a4.25,4.25,0,0,1-2.67,1.73c-.28,0-.57-.29-.43-.58l.87-2.23h-.07c-.87,1.15-2.45,2.81-3.31,2.81a.71.71,0,0,1-.72-.65,1.54,1.54,0,0,1,.22-.72Z"/><path class="cls-3" d="M220.62,235.15a5,5,0,0,1,1.59-3.24,3,3,0,0,1,2.15-1c.72,0,1.15.36,1.15.94a.78.78,0,0,1-.79.72.4.4,0,0,1-.43-.36c0-.36,0-.79-.36-.79s-.58.29-1,.86a5.61,5.61,0,0,0-.86,2.73c0,.58.22.79.57.79a1.93,1.93,0,0,0,1.44-.79c.22,0,.29.08.29.22a3.36,3.36,0,0,1-2.52,1.44C221.13,236.66,220.62,236.15,220.62,235.15Z"/><path class="cls-3" d="M234.43,231.62a.55.55,0,0,1,.57.51,7.39,7.39,0,0,1-1.51,2.58h0v.51a4.33,4.33,0,0,0,.72-.87h.07l-.5,1.3a3.42,3.42,0,0,0-.14.57.48.48,0,0,0,.5.44,3.91,3.91,0,0,0,2.51-1.51c0-.22-.14-.29-.21-.29a2.74,2.74,0,0,1-1.37.86c-.07,0-.14-.07-.07-.21.5-1.44,1.37-3.67,1.73-4.61-.08-.21-.51-.28-.72-.28s-.22,0-.29.07l-.36.72c-.07-.08-.21-.22-.29-.22a.53.53,0,0,0-.28-.14,2.25,2.25,0,0,0-1.08.28c-.07.08-.15.15-.22.15v.72C233.92,231.77,234.14,231.62,234.43,231.62Zm-.94,3.09a4.08,4.08,0,0,1-1.36,1.08c-.15,0-.22-.14-.22-.28a7.5,7.5,0,0,1,1.51-3.31h.07v-.72A7.2,7.2,0,0,0,232,232.7a6,6,0,0,0-1.58,3.16.74.74,0,0,0,.72.8,4.35,4.35,0,0,0,2.37-1.44Z"/><path class="cls-3" d="M246.57,231.33c.29,0,.37.44.22,1a5.61,5.61,0,0,1-1.37,2.3c-.07.15-.21.22-.28.36v.65c.43-.5.86-1.08,1.22-1.58h.07l-.5,1.22a6.1,6.1,0,0,0-.22.93.44.44,0,0,0,.5.44,3.82,3.82,0,0,0,2.59-1.73c0-.22-.07-.29-.21-.29a3.43,3.43,0,0,1-1.37,1.08c-.14,0-.14-.14-.14-.21a3.07,3.07,0,0,0,.21-.72c.15-.44,1.44-4.46,2-5.9.36-.93.5-1.44.71-2.08,0-.08-.07-.08-.07-.15-.64.07-1.72.29-2.08.36a.46.46,0,0,0-.07.29l.36.22c.21.14.21.36,0,.93l-1,2.8a.89.89,0,0,0-.72-.36,2.42,2.42,0,0,0-1.29.36v1.22a6.36,6.36,0,0,1,.64-.64A1.53,1.53,0,0,1,246.57,231.33ZM245.14,235a4.36,4.36,0,0,1-1.58,1,.23.23,0,0,1-.22-.22,4.55,4.55,0,0,1,.86-1.94,6,6,0,0,1,.94-1.37v-1.22a4.06,4.06,0,0,0-1.22.8,5.56,5.56,0,0,0-1.8,3.45c0,.71.36,1.15.93,1.15a3.08,3.08,0,0,0,2.09-1Z"/><path class="cls-3" d="M256.93,232H257c.29-.43.57-.66.86-.66s.43.44.43.8a7.53,7.53,0,0,1-1.15,3.23l-.21.22v.93a3.11,3.11,0,0,0,1.29-.79,4.35,4.35,0,0,0,1.3-3,1.53,1.53,0,0,0-1.66-1.8,2.17,2.17,0,0,0-.93.15Zm-.8,4.16c-.35,0-.5-.29-.5-.71a7,7,0,0,1,1.3-3.45v-.94a4.1,4.1,0,0,0-1.15.72,4.94,4.94,0,0,0-1.44,3.09,1.65,1.65,0,0,0,1.73,1.8,3.31,3.31,0,0,0,.86-.15v-.93C256.64,236,256.35,236.15,256.13,236.15Z"/><path class="cls-3" d="M267.92,232.27l-.5,1.44h.08c.42-.72.93-1.51,1.22-1.94.43-.58.86-.87,1.22-.87a.66.66,0,0,1,.65.72c0,.44-.29,1.08-.72,1.08-.15,0-.22-.14-.29-.36s-.15-.43-.29-.43-.43.29-.93,1.08a31.53,31.53,0,0,0-1.66,3.45.42.42,0,0,1-.43.22c-.29,0-.79-.07-.65-.51.29-.86,1-2.73,1.37-4,.07-.22.07-.36-.07-.36-.29,0-.72.43-1.08.79-.14,0-.22-.15-.22-.29a2.64,2.64,0,0,1,1.88-1.37C268.29,230.9,268.14,231.7,267.92,232.27Z"/><path class="cls-3" d="M278.85,231.33c.15,0,.22.23.22.37a1.52,1.52,0,0,1-.5,1,3.4,3.4,0,0,1-.51.5v.58c1.15-.43,2.23-1,2.23-1.94a1,1,0,0,0-1.08-.94,3.68,3.68,0,0,0-1.15.22v.72a1.53,1.53,0,0,1,.79-.51Zm-.79,5v-.65a3.51,3.51,0,0,0,.94-.72c.14,0,.21.15.21.29A3.32,3.32,0,0,1,278.06,236.3Zm0-3.1a8,8,0,0,1-1.08.44,6.33,6.33,0,0,1,1-1.73l.07-.07v-.72a5,5,0,0,0-2.73,4c0,.79.36,1.51,1.29,1.51a3.6,3.6,0,0,0,1.44-.36v-.65a2.17,2.17,0,0,1-.64.14c-.44,0-.65-.28-.65-.79a2.7,2.7,0,0,1,.14-.86,7.26,7.26,0,0,0,1.15-.36Z"/><path class="cls-3" d="M285,235.79c0-.35.22-.71.51-.71.14,0,.21.14.36.21.36.36.65.65,1,.65a.56.56,0,0,0,.58-.5,2.57,2.57,0,0,0-.72-1.3,2.49,2.49,0,0,1-.58-1.29,1.84,1.84,0,0,1,.8-1.44,1.94,1.94,0,0,1,1.22-.51,1.06,1.06,0,0,1,1.15.94.61.61,0,0,1-.5.57.37.37,0,0,1-.29-.21c-.36-.43-.58-.58-.94-.58a.42.42,0,0,0-.43.44c0,.42.43.85.65,1.22a1.7,1.7,0,0,1,.57,1.43,1.82,1.82,0,0,1-.72,1.37,2.5,2.5,0,0,1-1.58.58A1,1,0,0,1,285,235.79Z"/></g></g></svg>