<?xml version="1.0" encoding="UTF-8"?>
<svg id="Capa_1" data-name="Capa 1" xmlns="http://www.w3.org/2000/svg" xmlns:xlink="http://www.w3.org/1999/xlink" viewBox="0 0 307 280">
  <defs>
    <style>
      .cls-1 {
        fill: url(#Degradado_sin_nombre_25-2);
      }

      .cls-2 {
        fill: #c44127;
      }

      .cls-3 {
        fill: url(#Degradado_sin_nombre_25-5);
      }

      .cls-4 {
        clip-path: url(#clippath-11);
      }

      .cls-5 {
        fill: #fff;
      }

      .cls-6 {
        fill: url(#Degradado_sin_nombre_25-12);
      }

      .cls-7 {
        fill: url(#Degradado_sin_nombre_25-9);
      }

      .cls-8 {
        fill: #0baa79;
      }

      .cls-9 {
        fill: #0a895f;
      }

      .cls-10 {
        fill: url(#Degradado_sin_nombre_25-7);
      }

      .cls-11, .cls-12 {
        fill: #4c473f;
      }

      .cls-13 {
        fill: #005f98;
      }

      .cls-14, .cls-12, .cls-15, .cls-16, .cls-17 {
        stroke: #000;
        stroke-miterlimit: 10;
        stroke-width: 3px;
      }

      .cls-14, .cls-18 {
        fill: #8c8473;
      }

      .cls-19 {
        fill: #94deea;
      }

      .cls-20 {
        fill: url(#Degradado_sin_nombre_25-10);
      }

      .cls-21 {
        fill: url(#Degradado_sin_nombre_25-4);
      }

      .cls-22 {
        clip-path: url(#clippath-2);
      }

      .cls-23 {
        fill: #999081;
      }

      .cls-24 {
        fill: #3d2b1f;
      }

      .cls-25 {
        clip-path: url(#clippath-6);
      }

      .cls-26 {
        fill: #f28f68;
      }

      .cls-27 {
        fill: url(#Degradado_sin_nombre_27-3);
      }

      .cls-28 {
        fill: url(#Degradado_sin_nombre_25-14);
      }

      .cls-29 {
        fill: url(#Degradado_sin_nombre_25-11);
      }

      .cls-30 {
        clip-path: url(#clippath-7);
      }

      .cls-31 {
        clip-path: url(#clippath-1);
      }

      .cls-32 {
        clip-path: url(#clippath-4);
      }

      .cls-33 {
        fill: #edd315;
      }

      .cls-15, .cls-34 {
        fill: none;
      }

      .cls-35 {
        fill: url(#Degradado_sin_nombre_24-3);
      }

      .cls-36 {
        fill: url(#Degradado_sin_nombre_25-6);
      }

      .cls-37 {
        fill: #41a594;
      }

      .cls-38 {
        fill: url(#Degradado_sin_nombre_27-4);
      }

      .cls-39 {
        fill: #842353;
      }

      .cls-40 {
        fill: url(#Degradado_sin_nombre_25);
      }

      .cls-41 {
        fill: #e08d34;
      }

      .cls-42 {
        fill: url(#Degradado_sin_nombre_27);
      }

      .cls-43, .cls-17 {
        fill: #f7e7cd;
      }

      .cls-44, .cls-16 {
        fill: #c9bda6;
      }

      .cls-45 {
        clip-path: url(#clippath-9);
      }

      .cls-46 {
        clip-path: url(#clippath);
      }

      .cls-47 {
        fill: url(#Degradado_sin_nombre_25-13);
      }

      .cls-48 {
        fill: url(#Degradado_sin_nombre_25-8);
      }

      .cls-49 {
        clip-path: url(#clippath-3);
      }

      .cls-50 {
        fill: #8c8379;
      }

      .cls-51 {
        fill: url(#Degradado_sin_nombre_24-2);
      }

      .cls-52 {
        fill: url(#Degradado_sin_nombre_27-6);
      }

      .cls-53 {
        fill: url(#Degradado_sin_nombre_24);
      }

      .cls-54 {
        clip-path: url(#clippath-8);
      }

      .cls-55 {
        fill: #1d6a7f;
      }

      .cls-56 {
        fill: url(#Degradado_sin_nombre_25-17);
      }

      .cls-57 {
        fill: url(#Degradado_sin_nombre_27-2);
      }

      .cls-58 {
        fill: url(#Degradado_sin_nombre_25-3);
      }

      .cls-59 {
        clip-path: url(#clippath-5);
      }

      .cls-60 {
        fill: url(#Degradado_sin_nombre_25-16);
      }

      .cls-61 {
        fill: url(#Degradado_sin_nombre_25-18);
      }

      .cls-62 {
        fill: url(#Degradado_sin_nombre_26);
      }

      .cls-63 {
        fill: #f4ba9e;
      }

      .cls-64 {
        clip-path: url(#clippath-10);
      }

      .cls-65 {
        fill: url(#Degradado_sin_nombre_27-5);
      }

      .cls-66 {
        fill: url(#Degradado_sin_nombre_25-15);
      }

      .cls-67 {
        fill: #7f776b;
      }
    </style>
    <clipPath id="clippath">
      <circle class="cls-19" cx="153.5" cy="141.75" r="128"/>
    </clipPath>
    <clipPath id="clippath-1">
      <rect class="cls-16" x="32.9" y="99.35" width="241.03" height="154.66"/>
    </clipPath>
    <clipPath id="clippath-2">
      <path class="cls-17" d="M98.26,208.06H52.57v-58.38h0c14.05-7.31,31.65-7.31,45.7,0h0v58.38Z"/>
    </clipPath>
    <clipPath id="clippath-3">
      <path class="cls-17" d="M176.6,208.06h-45.7v-58.38h0c14.05-7.31,31.65-7.31,45.7,0h0v58.38Z"/>
    </clipPath>
    <clipPath id="clippath-4">
      <path class="cls-17" d="M254.43,208.06h-45.7v-58.38h0c14.05-7.31,31.65-7.31,45.7,0h0v58.38Z"/>
    </clipPath>
    <clipPath id="clippath-5">
      <polygon class="cls-12" points="33.28 49.63 5.58 99.35 301.42 99.35 273.8 49.49 33.28 49.63"/>
    </clipPath>
    <linearGradient id="Degradado_sin_nombre_26" data-name="Degradado sin nombre 26" x1="5.91" y1="85.3" x2="20.47" y2="85.3" gradientUnits="userSpaceOnUse">
      <stop offset="0" stop-color="#f4ba9e"/>
      <stop offset="1" stop-color="#f28f68"/>
    </linearGradient>
    <linearGradient id="Degradado_sin_nombre_25" data-name="Degradado sin nombre 25" x1="50.31" y1="85.3" x2="64.87" y2="85.3" gradientUnits="userSpaceOnUse">
      <stop offset="0" stop-color="#f4ba9e"/>
      <stop offset="1" stop-color="#f28f68"/>
    </linearGradient>
    <linearGradient id="Degradado_sin_nombre_25-2" data-name="Degradado sin nombre 25" x1="94.71" x2="109.27" xlink:href="#Degradado_sin_nombre_25"/>
    <linearGradient id="Degradado_sin_nombre_25-3" data-name="Degradado sin nombre 25" x1="139.11" x2="153.67" xlink:href="#Degradado_sin_nombre_25"/>
    <linearGradient id="Degradado_sin_nombre_25-4" data-name="Degradado sin nombre 25" x1="183.51" x2="198.07" xlink:href="#Degradado_sin_nombre_25"/>
    <linearGradient id="Degradado_sin_nombre_25-5" data-name="Degradado sin nombre 25" x1="227.91" x2="242.47" xlink:href="#Degradado_sin_nombre_25"/>
    <linearGradient id="Degradado_sin_nombre_25-6" data-name="Degradado sin nombre 25" x1="272.31" x2="286.87" xlink:href="#Degradado_sin_nombre_25"/>
    <linearGradient id="Degradado_sin_nombre_24" data-name="Degradado sin nombre 24" x1="5.91" y1="61.2" x2="20.47" y2="61.2" gradientUnits="userSpaceOnUse">
      <stop offset="0" stop-color="#f28f68"/>
      <stop offset="1" stop-color="#f4ba9e"/>
    </linearGradient>
    <linearGradient id="Degradado_sin_nombre_27" data-name="Degradado sin nombre 27" x1="20.71" y1="61.2" x2="35.27" y2="61.2" gradientUnits="userSpaceOnUse">
      <stop offset="0" stop-color="#f4ba9e"/>
      <stop offset="1" stop-color="#f28f68"/>
    </linearGradient>
    <linearGradient id="Degradado_sin_nombre_27-2" data-name="Degradado sin nombre 27" x1="65.11" x2="79.67" xlink:href="#Degradado_sin_nombre_27"/>
    <linearGradient id="Degradado_sin_nombre_27-3" data-name="Degradado sin nombre 27" x1="109.51" x2="124.07" xlink:href="#Degradado_sin_nombre_27"/>
    <linearGradient id="Degradado_sin_nombre_27-4" data-name="Degradado sin nombre 27" x1="153.91" x2="168.47" xlink:href="#Degradado_sin_nombre_27"/>
    <linearGradient id="Degradado_sin_nombre_27-5" data-name="Degradado sin nombre 27" x1="198.31" x2="212.87" xlink:href="#Degradado_sin_nombre_27"/>
    <linearGradient id="Degradado_sin_nombre_27-6" data-name="Degradado sin nombre 27" x1="242.71" x2="257.27" xlink:href="#Degradado_sin_nombre_27"/>
    <linearGradient id="Degradado_sin_nombre_24-2" data-name="Degradado sin nombre 24" x1="287.11" x2="301.67" xlink:href="#Degradado_sin_nombre_24"/>
    <clipPath id="clippath-6">
      <path class="cls-34" d="M307-3.75H0V147.25H25.63c2.88,68.14,59.03,122.5,127.87,122.5s124.99-54.36,127.87-122.5h25.63V-3.75Z"/>
    </clipPath>
    <clipPath id="clippath-7">
      <rect class="cls-16" x="32.9" y="99.35" width="241.03" height="154.66"/>
    </clipPath>
    <clipPath id="clippath-8">
      <path class="cls-17" d="M98.26,208.06H52.57v-58.38h0c14.05-7.31,31.65-7.31,45.7,0h0v58.38Z"/>
    </clipPath>
    <clipPath id="clippath-9">
      <path class="cls-17" d="M176.6,208.06h-45.7v-58.38h0c14.05-7.31,31.65-7.31,45.7,0h0v58.38Z"/>
    </clipPath>
    <clipPath id="clippath-10">
      <path class="cls-17" d="M254.43,208.06h-45.7v-58.38h0c14.05-7.31,31.65-7.31,45.7,0h0v58.38Z"/>
    </clipPath>
    <clipPath id="clippath-11">
      <polygon class="cls-12" points="33.28 49.63 5.58 99.35 301.42 99.35 273.8 49.49 33.28 49.63"/>
    </clipPath>
    <linearGradient id="Degradado_sin_nombre_25-7" data-name="Degradado sin nombre 25" x1="5.91" x2="20.47" xlink:href="#Degradado_sin_nombre_25"/>
    <linearGradient id="Degradado_sin_nombre_25-8" data-name="Degradado sin nombre 25" x1="94.71" x2="109.27" xlink:href="#Degradado_sin_nombre_25"/>
    <linearGradient id="Degradado_sin_nombre_25-9" data-name="Degradado sin nombre 25" x1="139.11" x2="153.67" xlink:href="#Degradado_sin_nombre_25"/>
    <linearGradient id="Degradado_sin_nombre_25-10" data-name="Degradado sin nombre 25" x1="183.51" x2="198.07" xlink:href="#Degradado_sin_nombre_25"/>
    <linearGradient id="Degradado_sin_nombre_25-11" data-name="Degradado sin nombre 25" x1="227.91" x2="242.47" xlink:href="#Degradado_sin_nombre_25"/>
    <linearGradient id="Degradado_sin_nombre_25-12" data-name="Degradado sin nombre 25" x1="272.31" x2="286.87" xlink:href="#Degradado_sin_nombre_25"/>
    <linearGradient id="Degradado_sin_nombre_25-13" data-name="Degradado sin nombre 25" x1="20.71" y1="61.2" x2="35.27" y2="61.2" xlink:href="#Degradado_sin_nombre_25"/>
    <linearGradient id="Degradado_sin_nombre_25-14" data-name="Degradado sin nombre 25" x1="65.11" y1="61.2" x2="79.67" y2="61.2" xlink:href="#Degradado_sin_nombre_25"/>
    <linearGradient id="Degradado_sin_nombre_25-15" data-name="Degradado sin nombre 25" x1="109.51" y1="61.2" x2="124.07" y2="61.2" xlink:href="#Degradado_sin_nombre_25"/>
    <linearGradient id="Degradado_sin_nombre_25-16" data-name="Degradado sin nombre 25" x1="153.91" y1="61.2" x2="168.47" y2="61.2" xlink:href="#Degradado_sin_nombre_25"/>
    <linearGradient id="Degradado_sin_nombre_25-17" data-name="Degradado sin nombre 25" x1="198.31" y1="61.2" x2="212.87" y2="61.2" xlink:href="#Degradado_sin_nombre_25"/>
    <linearGradient id="Degradado_sin_nombre_25-18" data-name="Degradado sin nombre 25" x1="242.71" y1="61.2" x2="257.27" y2="61.2" xlink:href="#Degradado_sin_nombre_25"/>
    <linearGradient id="Degradado_sin_nombre_24-3" data-name="Degradado sin nombre 24" x1="287.11" x2="301.67" xlink:href="#Degradado_sin_nombre_24"/>
  </defs>
  <g>
    <g>
      <circle class="cls-19" cx="153.5" cy="141.75" r="128"/>
      <g class="cls-46">
        <path class="cls-5" d="M135.5,42.75h129v34H135.5c-9.38,0-17-7.62-17-17h0c0-9.38,7.62-17,17-17Z"/>
        <path class="cls-5" d="M176.18,68.4h105.32v25.35h-105.32c-7,0-12.68-5.68-12.68-12.68h0c0-7,5.68-12.68,12.68-12.68Z"/>
        <rect class="cls-5" x="65.5" y="17.75" width="84.68" height="19" rx="9.5" ry="9.5"/>
        <g>
          <g>
            <g>
              <rect class="cls-44" x="32.9" y="99.35" width="241.03" height="154.66"/>
              <g class="cls-31">
                <g>
                  <g>
                    <rect class="cls-67" x="194.84" y="101.86" width="76.08" height="15.32"/>
                    <rect class="cls-67" x="126.8" y="101.86" width="53.73" height="15.32"/>
                    <rect class="cls-67" x="36.16" y="101.86" width="76.08" height="15.32"/>
                  </g>
                  <g>
                    <rect class="cls-50" x="194.84" y="119.25" width="76.08" height="7.53"/>
                    <rect class="cls-50" x="126.8" y="119.25" width="53.73" height="7.53"/>
                    <rect class="cls-50" x="36.16" y="119.25" width="76.08" height="7.53"/>
                  </g>
                  <rect class="cls-67" x="36.42" y="216.28" width="235" height="9.04"/>
                  <rect class="cls-50" x="36.42" y="228.74" width="235" height="9.04"/>
                  <rect class="cls-23" x="36.42" y="241.2" width="235" height="9.04"/>
                  <g>
                    <rect class="cls-18" x="-7.52" y="170.12" width="32.64" height="13.06"/>
                    <rect class="cls-2" x="27.66" y="170.37" width="32.64" height="13.06"/>
                    <rect class="cls-18" x="62.85" y="170.37" width="32.64" height="13.06"/>
                    <rect class="cls-55" x="98.04" y="170.37" width="32.64" height="13.06"/>
                    <rect class="cls-18" x="133.22" y="170.37" width="32.64" height="13.06"/>
                    <rect class="cls-55" x="168.41" y="170.37" width="32.64" height="13.06"/>
                    <rect class="cls-39" x="203.59" y="170.37" width="32.64" height="13.06"/>
                    <rect class="cls-2" x="238.78" y="170.37" width="32.64" height="13.06"/>
                  </g>
                  <g>
                    <rect class="cls-18" x="-7.52" y="200.89" width="32.64" height="13.06"/>
                    <rect class="cls-39" x="27.66" y="201.14" width="32.64" height="13.06"/>
                    <rect class="cls-55" x="62.85" y="201.14" width="32.64" height="13.06"/>
                    <rect class="cls-37" x="98.04" y="201.14" width="32.64" height="13.06"/>
                    <rect class="cls-37" x="133.22" y="201.14" width="32.64" height="13.06"/>
                    <rect class="cls-37" x="168.41" y="201.14" width="32.64" height="13.06"/>
                    <rect class="cls-55" x="203.59" y="201.14" width="32.64" height="13.06"/>
                    <rect class="cls-39" x="238.78" y="201.14" width="32.64" height="13.06"/>
                  </g>
                  <g>
                    <rect class="cls-41" x="11.56" y="154.73" width="32.64" height="13.06"/>
                    <rect class="cls-2" x="46.74" y="154.98" width="32.64" height="13.06"/>
                    <rect class="cls-39" x="81.93" y="154.98" width="32.64" height="13.06"/>
                    <rect class="cls-55" x="117.12" y="154.98" width="32.64" height="13.06"/>
                    <rect class="cls-55" x="152.3" y="154.98" width="32.64" height="13.06"/>
                    <rect class="cls-39" x="187.49" y="154.98" width="32.64" height="13.06"/>
                    <rect class="cls-18" x="222.68" y="154.98" width="32.64" height="13.06"/>
                    <rect class="cls-41" x="257.86" y="154.98" width="32.64" height="13.06"/>
                  </g>
                  <g>
                    <rect class="cls-2" x="11.56" y="185.5" width="32.64" height="13.06"/>
                    <rect class="cls-39" x="46.74" y="185.75" width="32.64" height="13.06"/>
                    <rect class="cls-55" x="81.93" y="185.75" width="32.64" height="13.06"/>
                    <rect class="cls-37" x="117.12" y="185.75" width="32.64" height="13.06"/>
                    <rect class="cls-37" x="152.3" y="185.75" width="32.64" height="13.06"/>
                    <rect class="cls-55" x="187.49" y="185.75" width="32.64" height="13.06"/>
                    <rect class="cls-18" x="222.68" y="185.75" width="32.64" height="13.06"/>
                    <rect class="cls-2" x="257.86" y="185.75" width="32.64" height="13.06"/>
                  </g>
                  <g>
                    <g>
                      <polygon class="cls-2" points="132.03 128.86 174.93 128.86 167.53 138.09 139.56 138.09 132.03 128.86"/>
                      <polygon class="cls-33" points="54.2 128.86 97.1 128.86 89.7 138.09 61.73 138.09 54.2 128.86"/>
                      <polygon class="cls-33" points="209.86 128.86 252.76 128.86 245.37 138.09 217.39 138.09 209.86 128.86"/>
                    </g>
                    <g>
                      <polygon class="cls-39" points="136.27 152.65 93.37 152.65 100.76 143.43 128.74 143.43 136.27 152.65"/>
                      <polygon class="cls-39" points="214.1 152.65 171.2 152.65 178.6 143.43 206.57 143.43 214.1 152.65"/>
                      <polygon class="cls-41" points="291.93 152.65 249.03 152.65 256.43 143.43 284.4 143.43 291.93 152.65"/>
                      <polygon class="cls-41" points="58.43 152.65 15.53 152.65 22.93 143.43 50.9 143.43 58.43 152.65"/>
                    </g>
                    <g>
                      <polygon class="cls-2" points="99.82 129.46 98.77 130.73 91.06 140.07 77.09 140.07 77.09 152.06 91.06 152.06 91.98 150.94 99.82 141.45 113.66 141.45 113.66 129.46 99.82 129.46"/>
                      <polygon class="cls-39" points="129.68 129.46 130.73 130.73 138.44 140.07 152.41 140.07 152.41 152.06 138.44 152.06 137.52 150.94 129.68 141.45 115.84 141.45 115.84 129.46 129.68 129.46"/>
                      <polygon class="cls-39" points="177.66 129.46 176.6 130.73 168.89 140.07 154.92 140.07 154.92 152.06 168.89 152.06 169.81 150.94 177.66 141.45 191.5 141.45 191.5 129.46 177.66 129.46"/>
                      <polygon class="cls-2" points="207.51 129.46 208.56 130.73 216.27 140.07 230.24 140.07 230.24 152.06 216.27 152.06 215.35 150.94 207.51 141.45 193.67 141.45 193.67 129.46 207.51 129.46"/>
                      <polygon class="cls-41" points="255.49 129.46 254.43 130.73 246.72 140.07 232.75 140.07 232.75 152.06 246.72 152.06 247.65 150.94 255.49 141.45 269.33 141.45 269.33 129.46 255.49 129.46"/>
                      <polygon class="cls-33" points="285.34 129.46 286.4 130.73 294.11 140.07 308.08 140.07 308.08 152.06 294.11 152.06 293.18 150.94 285.34 141.45 271.5 141.45 271.5 129.46 285.34 129.46"/>
                      <polygon class="cls-33" points="21.99 129.46 20.94 130.73 13.23 140.07 -.74 140.07 -.74 152.06 13.23 152.06 14.15 150.94 21.99 141.45 35.83 141.45 35.83 129.46 21.99 129.46"/>
                      <polygon class="cls-41" points="51.84 129.46 52.9 130.73 60.61 140.07 74.58 140.07 74.58 152.06 60.61 152.06 59.69 150.94 51.84 141.45 38 141.45 38 129.46 51.84 129.46"/>
                    </g>
                  </g>
                  <g>
                    <path class="cls-43" d="M98.26,208.06H52.57v-58.38h0c14.05-7.31,31.65-7.31,45.7,0h0v58.38Z"/>
                    <g class="cls-22">
                      <rect class="cls-24" x="58.44" y="143.28" width="3.77" height="75.07"/>
                      <rect class="cls-24" x="68.33" y="143.28" width="3.77" height="75.07"/>
                      <rect class="cls-24" x="78.23" y="143.28" width="3.77" height="75.07"/>
                      <rect class="cls-24" x="73.53" y="156.97" width="3.77" height="46.2" transform="translate(255.48 104.65) rotate(90)"/>
                      <rect class="cls-24" x="73.53" y="166.73" width="3.77" height="46.2" transform="translate(265.25 114.42) rotate(90)"/>
                      <rect class="cls-24" x="73.53" y="137.43" width="3.77" height="46.2" transform="translate(235.95 85.12) rotate(90)"/>
                      <rect class="cls-24" x="73.53" y="127.67" width="3.77" height="46.2" transform="translate(226.18 75.35) rotate(90)"/>
                      <rect class="cls-24" x="73.53" y="147.2" width="3.77" height="46.2" transform="translate(245.71 94.88) rotate(90)"/>
                      <rect class="cls-24" x="73.78" y="174.74" width="3.77" height="49.71" transform="translate(275.27 123.93) rotate(90)"/>
                      <rect class="cls-24" x="73.78" y="184.51" width="3.77" height="49.71" transform="translate(285.03 133.7) rotate(90)"/>
                      <rect class="cls-24" x="88.12" y="143.28" width="3.77" height="75.07"/>
                    </g>
                    <path class="cls-15" d="M98.26,208.06H52.57v-58.38h0c14.05-7.31,31.65-7.31,45.7,0h0v58.38Z"/>
                  </g>
                  <g>
                    <path class="cls-43" d="M176.6,208.06h-45.7v-58.38h0c14.05-7.31,31.65-7.31,45.7,0h0v58.38Z"/>
                    <g class="cls-49">
                      <rect class="cls-24" x="136.78" y="143.28" width="3.77" height="75.07"/>
                      <rect class="cls-24" x="146.67" y="143.28" width="3.77" height="75.07"/>
                      <rect class="cls-24" x="156.56" y="143.28" width="3.77" height="75.07"/>
                      <rect class="cls-24" x="151.87" y="156.97" width="3.77" height="46.2" transform="translate(333.82 26.32) rotate(90)"/>
                      <rect class="cls-24" x="151.87" y="166.73" width="3.77" height="46.2" transform="translate(343.58 36.08) rotate(90)"/>
                      <rect class="cls-24" x="151.87" y="137.43" width="3.77" height="46.2" transform="translate(314.28 6.78) rotate(90)"/>
                      <rect class="cls-24" x="151.87" y="127.67" width="3.77" height="46.2" transform="translate(304.52 -2.98) rotate(90)"/>
                      <rect class="cls-24" x="151.87" y="147.2" width="3.77" height="46.2" transform="translate(324.05 16.55) rotate(90)"/>
                      <rect class="cls-24" x="152.12" y="174.74" width="3.77" height="49.71" transform="translate(353.6 45.6) rotate(90)"/>
                      <rect class="cls-24" x="152.12" y="184.51" width="3.77" height="49.71" transform="translate(363.37 55.37) rotate(90)"/>
                      <rect class="cls-24" x="166.45" y="143.28" width="3.77" height="75.07"/>
                    </g>
                    <path class="cls-15" d="M176.6,208.06h-45.7v-58.38h0c14.05-7.31,31.65-7.31,45.7,0h0v58.38Z"/>
                  </g>
                  <g>
                    <path class="cls-43" d="M254.43,208.06h-45.7v-58.38h0c14.05-7.31,31.65-7.31,45.7,0h0v58.38Z"/>
                    <g class="cls-32">
                      <rect class="cls-24" x="214.61" y="143.1" width="3.77" height="89.92"/>
                      <rect class="cls-24" x="224.5" y="143.1" width="3.77" height="89.92"/>
                      <rect class="cls-24" x="234.39" y="143.1" width="3.77" height="89.92"/>
                      <rect class="cls-24" x="229.33" y="164.06" width="4.51" height="46.2" transform="translate(418.74 -44.42) rotate(90)"/>
                      <rect class="cls-24" x="229.33" y="175.76" width="4.51" height="46.2" transform="translate(430.44 -32.72) rotate(90)"/>
                      <rect class="cls-24" x="229.33" y="140.66" width="4.51" height="46.2" transform="translate(395.35 -67.82) rotate(90)"/>
                      <rect class="cls-24" x="229.33" y="128.97" width="4.51" height="46.2" transform="translate(383.65 -79.52) rotate(90)"/>
                      <rect class="cls-24" x="229.33" y="152.36" width="4.51" height="46.2" transform="translate(407.04 -56.12) rotate(90)"/>
                      <rect class="cls-24" x="229.58" y="185.7" width="4.51" height="49.71" transform="translate(442.39 -21.28) rotate(90)"/>
                      <rect class="cls-24" x="229.58" y="197.4" width="4.51" height="49.71" transform="translate(454.09 -9.58) rotate(90)"/>
                      <rect class="cls-24" x="244.29" y="143.1" width="3.77" height="89.92"/>
                    </g>
                    <path class="cls-15" d="M254.43,208.06h-45.7v-58.38h0c14.05-7.31,31.65-7.31,45.7,0h0v58.38Z"/>
                  </g>
                </g>
              </g>
              <rect class="cls-15" x="32.9" y="99.35" width="241.03" height="154.66"/>
            </g>
            <g>
              <rect class="cls-14" x="25.77" y="99.35" width="7.29" height="25.34"/>
              <rect class="cls-14" x="16.75" y="90.32" width="7.29" height="25.34" transform="translate(123.39 82.59) rotate(90)"/>
              <path class="cls-12" d="M16.33,106.78h9.3v9.3h-4.19c-2.82,0-5.11-2.29-5.11-5.11v-4.19h0Z"/>
            </g>
            <g>
              <rect class="cls-14" x="274.02" y="99.35" width="7.29" height="25.34" transform="translate(555.32 224.03) rotate(180)"/>
              <rect class="cls-14" x="283.04" y="90.32" width="7.29" height="25.34" transform="translate(389.68 -183.7) rotate(90)"/>
              <path class="cls-12" d="M286.56,106.78h4.19v9.3h-9.3v-4.19c0-2.82,2.29-5.11,5.11-5.11Z" transform="translate(572.21 222.87) rotate(180)"/>
            </g>
            <g>
              <rect class="cls-14" x="115.94" y="99.35" width="7.44" height="25.34"/>
              <rect class="cls-12" x="116.02" y="106.71" width="7.29" height="7.44" transform="translate(230.09 -9.23) rotate(90)"/>
            </g>
            <g>
              <rect class="cls-14" x="183.7" y="99.35" width="7.44" height="25.34"/>
              <rect class="cls-12" x="183.78" y="106.71" width="7.29" height="7.44" transform="translate(297.85 -76.99) rotate(90)"/>
            </g>
            <line class="cls-18" x1="93.66" y1="157.13" x2="92.66" y2="158.35"/>
          </g>
          <g>
            <polygon class="cls-11" points="33.28 49.63 5.58 99.35 301.42 99.35 273.8 49.49 33.28 49.63"/>
            <g class="cls-59">
              <g>
                <path class="cls-62" d="M20.47,97.12l-1.51-.44c-3.77-1.11-7.78-1.11-11.55,0l-1.51,.44v-21.6h0c4.48-2.71,10.08-2.71,14.56,0h0v21.6Z"/>
                <path class="cls-63" d="M35.27,97.12l-1.51-.44c-3.77-1.11-7.78-1.11-11.55,0l-1.51,.44v-21.6h0c4.48-2.71,10.08-2.71,14.56,0h0v21.6Z"/>
                <path class="cls-26" d="M50.07,97.12l-1.51-.44c-3.77-1.11-7.78-1.11-11.55,0l-1.51,.44v-21.6h0c4.48-2.71,10.08-2.71,14.56,0h0v21.6Z"/>
                <path class="cls-40" d="M64.87,97.12l-1.51-.44c-3.77-1.11-7.78-1.11-11.55,0l-1.51,.44v-21.6h0c4.48-2.71,10.08-2.71,14.56,0h0v21.6Z"/>
                <path class="cls-63" d="M79.67,97.12l-1.51-.44c-3.77-1.11-7.78-1.11-11.55,0l-1.51,.44v-21.6h0c4.48-2.71,10.08-2.71,14.56,0h0v21.6Z"/>
                <path class="cls-26" d="M94.47,97.12l-1.51-.44c-3.77-1.11-7.78-1.11-11.55,0l-1.51,.44v-21.6h0c4.48-2.71,10.08-2.71,14.56,0h0v21.6Z"/>
                <path class="cls-1" d="M109.27,97.12l-1.51-.44c-3.77-1.11-7.78-1.11-11.55,0l-1.51,.44v-21.6h0c4.48-2.71,10.08-2.71,14.56,0h0v21.6Z"/>
                <path class="cls-63" d="M124.07,97.12l-1.51-.44c-3.77-1.11-7.78-1.11-11.55,0l-1.51,.44v-21.6h0c4.48-2.71,10.08-2.71,14.56,0h0v21.6Z"/>
                <path class="cls-26" d="M138.87,97.12l-1.51-.44c-3.77-1.11-7.78-1.11-11.55,0l-1.51,.44v-21.6h0c4.48-2.71,10.08-2.71,14.56,0h0v21.6Z"/>
                <path class="cls-58" d="M153.67,97.12l-1.51-.44c-3.77-1.11-7.78-1.11-11.55,0l-1.51,.44v-21.6h0c4.48-2.71,10.08-2.71,14.56,0h0v21.6Z"/>
                <path class="cls-63" d="M168.47,97.12l-1.51-.44c-3.77-1.11-7.78-1.11-11.55,0l-1.51,.44v-21.6h0c4.48-2.71,10.08-2.71,14.56,0h0v21.6Z"/>
                <path class="cls-26" d="M183.27,97.12l-1.51-.44c-3.77-1.11-7.78-1.11-11.55,0l-1.51,.44v-21.6h0c4.48-2.71,10.08-2.71,14.56,0h0v21.6Z"/>
                <path class="cls-21" d="M198.07,97.12l-1.51-.44c-3.77-1.11-7.78-1.11-11.55,0l-1.51,.44v-21.6h0c4.48-2.71,10.08-2.71,14.56,0h0v21.6Z"/>
                <path class="cls-63" d="M212.87,97.12l-1.51-.44c-3.77-1.11-7.78-1.11-11.55,0l-1.51,.44v-21.6h0c4.48-2.71,10.08-2.71,14.56,0h0v21.6Z"/>
                <path class="cls-26" d="M227.67,97.12l-1.51-.44c-3.77-1.11-7.78-1.11-11.55,0l-1.51,.44v-21.6h0c4.48-2.71,10.08-2.71,14.56,0h0v21.6Z"/>
                <path class="cls-3" d="M242.47,97.12l-1.51-.44c-3.77-1.11-7.78-1.11-11.55,0l-1.51,.44v-21.6h0c4.48-2.71,10.08-2.71,14.56,0h0v21.6Z"/>
                <path class="cls-63" d="M257.27,97.12l-1.51-.44c-3.77-1.11-7.78-1.11-11.55,0l-1.51,.44v-21.6h0c4.48-2.71,10.08-2.71,14.56,0h0v21.6Z"/>
                <path class="cls-26" d="M272.07,97.12l-1.51-.44c-3.77-1.11-7.78-1.11-11.55,0l-1.51,.44v-21.6h0c4.48-2.71,10.08-2.71,14.56,0h0v21.6Z"/>
                <path class="cls-36" d="M286.87,97.12l-1.51-.44c-3.77-1.11-7.78-1.11-11.55,0l-1.51,.44v-21.6h0c4.48-2.71,10.08-2.71,14.56,0h0v21.6Z"/>
                <path class="cls-63" d="M301.67,97.12l-1.51-.44c-3.77-1.11-7.78-1.11-11.55,0l-1.51,.44v-21.6h0c4.48-2.71,10.08-2.71,14.56,0h0v21.6Z"/>
              </g>
              <g>
                <path class="cls-53" d="M20.47,73.01l-1.51-.44c-3.77-1.11-7.78-1.11-11.55,0l-1.51,.44v-21.6h0c4.48-2.71,10.08-2.71,14.56,0h0v21.6Z"/>
                <path class="cls-42" d="M35.27,73.01l-1.51-.44c-3.77-1.11-7.78-1.11-11.55,0l-1.51,.44v-21.6h0c4.48-2.71,10.08-2.71,14.56,0h0v21.6Z"/>
                <path class="cls-63" d="M50.07,73.01l-1.51-.44c-3.77-1.11-7.78-1.11-11.55,0l-1.51,.44v-21.6h0c4.48-2.71,10.08-2.71,14.56,0h0v21.6Z"/>
                <path class="cls-26" d="M64.87,73.01l-1.51-.44c-3.77-1.11-7.78-1.11-11.55,0l-1.51,.44v-21.6h0c4.48-2.71,10.08-2.71,14.56,0h0v21.6Z"/>
                <path class="cls-57" d="M79.67,73.01l-1.51-.44c-3.77-1.11-7.78-1.11-11.55,0l-1.51,.44v-21.6h0c4.48-2.71,10.08-2.71,14.56,0h0v21.6Z"/>
                <path class="cls-63" d="M94.47,73.01l-1.51-.44c-3.77-1.11-7.78-1.11-11.55,0l-1.51,.44v-21.6h0c4.48-2.71,10.08-2.71,14.56,0h0v21.6Z"/>
                <path class="cls-26" d="M109.27,73.01l-1.51-.44c-3.77-1.11-7.78-1.11-11.55,0l-1.51,.44v-21.6h0c4.48-2.71,10.08-2.71,14.56,0h0v21.6Z"/>
                <path class="cls-27" d="M124.07,73.01l-1.51-.44c-3.77-1.11-7.78-1.11-11.55,0l-1.51,.44v-21.6h0c4.48-2.71,10.08-2.71,14.56,0h0v21.6Z"/>
                <path class="cls-63" d="M138.87,73.01l-1.51-.44c-3.77-1.11-7.78-1.11-11.55,0l-1.51,.44v-21.6h0c4.48-2.71,10.08-2.71,14.56,0h0v21.6Z"/>
                <path class="cls-26" d="M153.67,73.01l-1.51-.44c-3.77-1.11-7.78-1.11-11.55,0l-1.51,.44v-21.6h0c4.48-2.71,10.08-2.71,14.56,0h0v21.6Z"/>
                <path class="cls-38" d="M168.47,73.01l-1.51-.44c-3.77-1.11-7.78-1.11-11.55,0l-1.51,.44v-21.6h0c4.48-2.71,10.08-2.71,14.56,0h0v21.6Z"/>
                <path class="cls-63" d="M183.27,73.01l-1.51-.44c-3.77-1.11-7.78-1.11-11.55,0l-1.51,.44v-21.6h0c4.48-2.71,10.08-2.71,14.56,0h0v21.6Z"/>
                <path class="cls-26" d="M198.07,73.01l-1.51-.44c-3.77-1.11-7.78-1.11-11.55,0l-1.51,.44v-21.6h0c4.48-2.71,10.08-2.71,14.56,0h0v21.6Z"/>
                <path class="cls-65" d="M212.87,73.01l-1.51-.44c-3.77-1.11-7.78-1.11-11.55,0l-1.51,.44v-21.6h0c4.48-2.71,10.08-2.71,14.56,0h0v21.6Z"/>
                <path class="cls-63" d="M227.67,73.01l-1.51-.44c-3.77-1.11-7.78-1.11-11.55,0l-1.51,.44v-21.6h0c4.48-2.71,10.08-2.71,14.56,0h0v21.6Z"/>
                <path class="cls-26" d="M242.47,73.01l-1.51-.44c-3.77-1.11-7.78-1.11-11.55,0l-1.51,.44v-21.6h0c4.48-2.71,10.08-2.71,14.56,0h0v21.6Z"/>
                <path class="cls-52" d="M257.27,73.01l-1.51-.44c-3.77-1.11-7.78-1.11-11.55,0l-1.51,.44v-21.6h0c4.48-2.71,10.08-2.71,14.56,0h0v21.6Z"/>
                <path class="cls-63" d="M272.07,73.01l-1.51-.44c-3.77-1.11-7.78-1.11-11.55,0l-1.51,.44v-21.6h0c4.48-2.71,10.08-2.71,14.56,0h0v21.6Z"/>
                <path class="cls-26" d="M286.87,73.01l-1.51-.44c-3.77-1.11-7.78-1.11-11.55,0l-1.51,.44v-21.6h0c4.48-2.71,10.08-2.71,14.56,0h0v21.6Z"/>
                <path class="cls-51" d="M301.67,73.01l-1.51-.44c-3.77-1.11-7.78-1.11-11.55,0l-1.51,.44v-21.6h0c4.48-2.71,10.08-2.71,14.56,0h0v21.6Z"/>
              </g>
            </g>
            <polygon class="cls-15" points="33.28 49.63 5.58 99.35 301.42 99.35 273.8 49.49 33.28 49.63"/>
          </g>
        </g>
        <g>
          <g>
            <path class="cls-8" d="M66.71,232.75h26.59c7.84,0,14.21,6.37,14.21,14.21v15.79H52.5v-15.79c0-7.84,6.37-14.21,14.21-14.21Z"/>
            <circle class="cls-9" cx="81" cy="239.25" r="4.5"/>
            <circle class="cls-9" cx="86" cy="249.25" r="4.5"/>
            <circle class="cls-9" cx="93" cy="240.25" r="4.5"/>
          </g>
          <g>
            <path class="cls-9" d="M182.71,247.75h26.59c7.84,0,14.21,6.37,14.21,14.21v15.79h-55v-15.79c0-7.84,6.37-14.21,14.21-14.21Z"/>
            <path class="cls-8" d="M136.41,238.75h37.18c4.92,0,8.91,3.99,8.91,8.91v30.09h-55v-30.09c0-4.92,3.99-8.91,8.91-8.91Z"/>
            <circle class="cls-8" cx="209" cy="255.25" r="4.5"/>
            <circle class="cls-9" cx="163" cy="246.25" r="4.5"/>
            <circle class="cls-9" cx="168" cy="256.25" r="4.5"/>
            <circle class="cls-9" cx="175" cy="247.25" r="4.5"/>
            <path class="cls-8" d="M196.5,227.75h55v30.09c0,4.92-3.99,8.91-8.91,8.91h-37.18c-4.92,0-8.91-3.99-8.91-8.91v-30.09h0Z" transform="translate(448 494.5) rotate(180)"/>
            <circle class="cls-9" cx="216" cy="235.25" r="4.5"/>
            <circle class="cls-9" cx="211" cy="245.25" r="4.5"/>
            <circle class="cls-9" cx="204" cy="236.25" r="4.5"/>
          </g>
          <g>
            <path class="cls-9" d="M101.41,244.75h37.18c4.92,0,8.91,3.99,8.91,8.91v22.09h-55v-22.09c0-4.92,3.99-8.91,8.91-8.91Z"/>
            <circle class="cls-8" cx="130.5" cy="261.75" r="6"/>
          </g>
        </g>
      </g>
    </g>
    <path class="cls-13" d="M153.5,13.75c70.69,0,128,57.31,128,128s-57.31,128-128,128S25.5,212.44,25.5,141.75,82.81,13.75,153.5,13.75m0-5c-35.53,0-68.92,13.83-94.05,38.95-25.12,25.12-38.95,58.52-38.95,94.05s13.83,68.92,38.95,94.05c25.12,25.12,58.52,38.95,94.05,38.95s68.92-13.83,94.05-38.95c25.12-25.12,38.95-58.52,38.95-94.05s-13.83-68.92-38.95-94.05c-25.12-25.12-58.52-38.95-94.05-38.95h0Z"/>
  </g>
  <g class="cls-25">
    <g>
      <g>
        <g>
          <rect class="cls-44" x="32.9" y="99.35" width="241.03" height="154.66"/>
          <g class="cls-30">
            <g>
              <g>
                <rect class="cls-67" x="194.84" y="101.86" width="76.08" height="15.32"/>
                <rect class="cls-67" x="126.8" y="101.86" width="53.73" height="15.32"/>
                <rect class="cls-67" x="36.16" y="101.86" width="76.08" height="15.32"/>
              </g>
              <g>
                <rect class="cls-50" x="194.84" y="119.25" width="76.08" height="7.53"/>
                <rect class="cls-50" x="126.8" y="119.25" width="53.73" height="7.53"/>
                <rect class="cls-50" x="36.16" y="119.25" width="76.08" height="7.53"/>
              </g>
              <rect class="cls-67" x="36.42" y="216.28" width="235" height="9.04"/>
              <rect class="cls-50" x="36.42" y="228.74" width="235" height="9.04"/>
              <rect class="cls-23" x="36.42" y="241.2" width="235" height="9.04"/>
              <g>
                <rect class="cls-18" x="-7.52" y="170.12" width="32.64" height="13.06"/>
                <rect class="cls-2" x="27.66" y="170.37" width="32.64" height="13.06"/>
                <rect class="cls-18" x="62.85" y="170.37" width="32.64" height="13.06"/>
                <rect class="cls-55" x="98.04" y="170.37" width="32.64" height="13.06"/>
                <rect class="cls-18" x="133.22" y="170.37" width="32.64" height="13.06"/>
                <rect class="cls-55" x="168.41" y="170.37" width="32.64" height="13.06"/>
                <rect class="cls-39" x="203.59" y="170.37" width="32.64" height="13.06"/>
                <rect class="cls-2" x="238.78" y="170.37" width="32.64" height="13.06"/>
              </g>
              <g>
                <rect class="cls-18" x="-7.52" y="200.89" width="32.64" height="13.06"/>
                <rect class="cls-39" x="27.66" y="201.14" width="32.64" height="13.06"/>
                <rect class="cls-55" x="62.85" y="201.14" width="32.64" height="13.06"/>
                <rect class="cls-37" x="98.04" y="201.14" width="32.64" height="13.06"/>
                <rect class="cls-37" x="133.22" y="201.14" width="32.64" height="13.06"/>
                <rect class="cls-37" x="168.41" y="201.14" width="32.64" height="13.06"/>
                <rect class="cls-55" x="203.59" y="201.14" width="32.64" height="13.06"/>
                <rect class="cls-39" x="238.78" y="201.14" width="32.64" height="13.06"/>
              </g>
              <g>
                <rect class="cls-41" x="11.56" y="154.73" width="32.64" height="13.06"/>
                <rect class="cls-2" x="46.74" y="154.98" width="32.64" height="13.06"/>
                <rect class="cls-39" x="81.93" y="154.98" width="32.64" height="13.06"/>
                <rect class="cls-55" x="117.12" y="154.98" width="32.64" height="13.06"/>
                <rect class="cls-55" x="152.3" y="154.98" width="32.64" height="13.06"/>
                <rect class="cls-39" x="187.49" y="154.98" width="32.64" height="13.06"/>
                <rect class="cls-18" x="222.68" y="154.98" width="32.64" height="13.06"/>
                <rect class="cls-41" x="257.86" y="154.98" width="32.64" height="13.06"/>
              </g>
              <g>
                <rect class="cls-2" x="11.56" y="185.5" width="32.64" height="13.06"/>
                <rect class="cls-39" x="46.74" y="185.75" width="32.64" height="13.06"/>
                <rect class="cls-55" x="81.93" y="185.75" width="32.64" height="13.06"/>
                <rect class="cls-37" x="117.12" y="185.75" width="32.64" height="13.06"/>
                <rect class="cls-37" x="152.3" y="185.75" width="32.64" height="13.06"/>
                <rect class="cls-55" x="187.49" y="185.75" width="32.64" height="13.06"/>
                <rect class="cls-18" x="222.68" y="185.75" width="32.64" height="13.06"/>
                <rect class="cls-2" x="257.86" y="185.75" width="32.64" height="13.06"/>
              </g>
              <g>
                <g>
                  <polygon class="cls-2" points="132.03 128.86 174.93 128.86 167.53 138.09 139.56 138.09 132.03 128.86"/>
                  <polygon class="cls-33" points="54.2 128.86 97.1 128.86 89.7 138.09 61.73 138.09 54.2 128.86"/>
                  <polygon class="cls-33" points="209.86 128.86 252.76 128.86 245.37 138.09 217.39 138.09 209.86 128.86"/>
                </g>
                <g>
                  <polygon class="cls-39" points="136.27 152.65 93.37 152.65 100.76 143.43 128.74 143.43 136.27 152.65"/>
                  <polygon class="cls-39" points="214.1 152.65 171.2 152.65 178.6 143.43 206.57 143.43 214.1 152.65"/>
                  <polygon class="cls-41" points="291.93 152.65 249.03 152.65 256.43 143.43 284.4 143.43 291.93 152.65"/>
                  <polygon class="cls-41" points="58.43 152.65 15.53 152.65 22.93 143.43 50.9 143.43 58.43 152.65"/>
                </g>
                <g>
                  <polygon class="cls-2" points="99.82 129.46 98.77 130.73 91.06 140.07 77.09 140.07 77.09 152.06 91.06 152.06 91.98 150.94 99.82 141.45 113.66 141.45 113.66 129.46 99.82 129.46"/>
                  <polygon class="cls-39" points="129.68 129.46 130.73 130.73 138.44 140.07 152.41 140.07 152.41 152.06 138.44 152.06 137.52 150.94 129.68 141.45 115.84 141.45 115.84 129.46 129.68 129.46"/>
                  <polygon class="cls-39" points="177.66 129.46 176.6 130.73 168.89 140.07 154.92 140.07 154.92 152.06 168.89 152.06 169.81 150.94 177.66 141.45 191.5 141.45 191.5 129.46 177.66 129.46"/>
                  <polygon class="cls-2" points="207.51 129.46 208.56 130.73 216.27 140.07 230.24 140.07 230.24 152.06 216.27 152.06 215.35 150.94 207.51 141.45 193.67 141.45 193.67 129.46 207.51 129.46"/>
                  <polygon class="cls-41" points="255.49 129.46 254.43 130.73 246.72 140.07 232.75 140.07 232.75 152.06 246.72 152.06 247.65 150.94 255.49 141.45 269.33 141.45 269.33 129.46 255.49 129.46"/>
                  <polygon class="cls-33" points="285.34 129.46 286.4 130.73 294.11 140.07 308.08 140.07 308.08 152.06 294.11 152.06 293.18 150.94 285.34 141.45 271.5 141.45 271.5 129.46 285.34 129.46"/>
                  <polygon class="cls-33" points="21.99 129.46 20.94 130.73 13.23 140.07 -.74 140.07 -.74 152.06 13.23 152.06 14.15 150.94 21.99 141.45 35.83 141.45 35.83 129.46 21.99 129.46"/>
                  <polygon class="cls-41" points="51.84 129.46 52.9 130.73 60.61 140.07 74.58 140.07 74.58 152.06 60.61 152.06 59.69 150.94 51.84 141.45 38 141.45 38 129.46 51.84 129.46"/>
                </g>
              </g>
              <g>
                <path class="cls-43" d="M98.26,208.06H52.57v-58.38h0c14.05-7.31,31.65-7.31,45.7,0h0v58.38Z"/>
                <g class="cls-54">
                  <rect class="cls-24" x="58.44" y="143.28" width="3.77" height="75.07"/>
                  <rect class="cls-24" x="68.33" y="143.28" width="3.77" height="75.07"/>
                  <rect class="cls-24" x="78.23" y="143.28" width="3.77" height="75.07"/>
                  <rect class="cls-24" x="73.53" y="156.97" width="3.77" height="46.2" transform="translate(255.48 104.65) rotate(90)"/>
                  <rect class="cls-24" x="73.53" y="166.73" width="3.77" height="46.2" transform="translate(265.25 114.42) rotate(90)"/>
                  <rect class="cls-24" x="73.53" y="137.43" width="3.77" height="46.2" transform="translate(235.95 85.12) rotate(90)"/>
                  <rect class="cls-24" x="73.53" y="127.67" width="3.77" height="46.2" transform="translate(226.18 75.35) rotate(90)"/>
                  <rect class="cls-24" x="73.53" y="147.2" width="3.77" height="46.2" transform="translate(245.71 94.88) rotate(90)"/>
                  <rect class="cls-24" x="73.78" y="174.74" width="3.77" height="49.71" transform="translate(275.27 123.93) rotate(90)"/>
                  <rect class="cls-24" x="73.78" y="184.51" width="3.77" height="49.71" transform="translate(285.03 133.7) rotate(90)"/>
                  <rect class="cls-24" x="88.12" y="143.28" width="3.77" height="75.07"/>
                </g>
                <path class="cls-15" d="M98.26,208.06H52.57v-58.38h0c14.05-7.31,31.65-7.31,45.7,0h0v58.38Z"/>
              </g>
              <g>
                <path class="cls-43" d="M176.6,208.06h-45.7v-58.38h0c14.05-7.31,31.65-7.31,45.7,0h0v58.38Z"/>
                <g class="cls-45">
                  <rect class="cls-24" x="136.78" y="143.28" width="3.77" height="75.07"/>
                  <rect class="cls-24" x="146.67" y="143.28" width="3.77" height="75.07"/>
                  <rect class="cls-24" x="156.56" y="143.28" width="3.77" height="75.07"/>
                  <rect class="cls-24" x="151.87" y="156.97" width="3.77" height="46.2" transform="translate(333.82 26.32) rotate(90)"/>
                  <rect class="cls-24" x="151.87" y="166.73" width="3.77" height="46.2" transform="translate(343.58 36.08) rotate(90)"/>
                  <rect class="cls-24" x="151.87" y="137.43" width="3.77" height="46.2" transform="translate(314.28 6.78) rotate(90)"/>
                  <rect class="cls-24" x="151.87" y="127.67" width="3.77" height="46.2" transform="translate(304.52 -2.98) rotate(90)"/>
                  <rect class="cls-24" x="151.87" y="147.2" width="3.77" height="46.2" transform="translate(324.05 16.55) rotate(90)"/>
                  <rect class="cls-24" x="152.12" y="174.74" width="3.77" height="49.71" transform="translate(353.6 45.6) rotate(90)"/>
                  <rect class="cls-24" x="152.12" y="184.51" width="3.77" height="49.71" transform="translate(363.37 55.37) rotate(90)"/>
                  <rect class="cls-24" x="166.45" y="143.28" width="3.77" height="75.07"/>
                </g>
                <path class="cls-15" d="M176.6,208.06h-45.7v-58.38h0c14.05-7.31,31.65-7.31,45.7,0h0v58.38Z"/>
              </g>
              <g>
                <path class="cls-43" d="M254.43,208.06h-45.7v-58.38h0c14.05-7.31,31.65-7.31,45.7,0h0v58.38Z"/>
                <g class="cls-64">
                  <rect class="cls-24" x="214.61" y="143.1" width="3.77" height="89.92"/>
                  <rect class="cls-24" x="224.5" y="143.1" width="3.77" height="89.92"/>
                  <rect class="cls-24" x="234.39" y="143.1" width="3.77" height="89.92"/>
                  <rect class="cls-24" x="229.33" y="164.06" width="4.51" height="46.2" transform="translate(418.74 -44.42) rotate(90)"/>
                  <rect class="cls-24" x="229.33" y="175.76" width="4.51" height="46.2" transform="translate(430.44 -32.72) rotate(90)"/>
                  <rect class="cls-24" x="229.33" y="140.66" width="4.51" height="46.2" transform="translate(395.35 -67.82) rotate(90)"/>
                  <rect class="cls-24" x="229.33" y="128.97" width="4.51" height="46.2" transform="translate(383.65 -79.52) rotate(90)"/>
                  <rect class="cls-24" x="229.33" y="152.36" width="4.51" height="46.2" transform="translate(407.04 -56.12) rotate(90)"/>
                  <rect class="cls-24" x="229.58" y="185.7" width="4.51" height="49.71" transform="translate(442.39 -21.28) rotate(90)"/>
                  <rect class="cls-24" x="229.58" y="197.4" width="4.51" height="49.71" transform="translate(454.09 -9.58) rotate(90)"/>
                  <rect class="cls-24" x="244.29" y="143.1" width="3.77" height="89.92"/>
                </g>
                <path class="cls-15" d="M254.43,208.06h-45.7v-58.38h0c14.05-7.31,31.65-7.31,45.7,0h0v58.38Z"/>
              </g>
            </g>
          </g>
          <rect class="cls-15" x="32.9" y="99.35" width="241.03" height="154.66"/>
        </g>
        <g>
          <rect class="cls-14" x="25.77" y="99.35" width="7.29" height="25.34"/>
          <rect class="cls-14" x="16.75" y="90.32" width="7.29" height="25.34" transform="translate(123.39 82.59) rotate(90)"/>
          <path class="cls-12" d="M16.33,106.78h9.3v9.3h-4.19c-2.82,0-5.11-2.29-5.11-5.11v-4.19h0Z"/>
        </g>
        <g>
          <rect class="cls-14" x="274.02" y="99.35" width="7.29" height="25.34" transform="translate(555.32 224.03) rotate(180)"/>
          <rect class="cls-14" x="283.04" y="90.32" width="7.29" height="25.34" transform="translate(389.68 -183.7) rotate(90)"/>
          <path class="cls-12" d="M286.56,106.78h4.19v9.3h-9.3v-4.19c0-2.82,2.29-5.11,5.11-5.11Z" transform="translate(572.21 222.87) rotate(180)"/>
        </g>
        <g>
          <rect class="cls-14" x="115.94" y="99.35" width="7.44" height="25.34"/>
          <rect class="cls-12" x="116.02" y="106.71" width="7.29" height="7.44" transform="translate(230.09 -9.23) rotate(90)"/>
        </g>
        <g>
          <rect class="cls-14" x="183.7" y="99.35" width="7.44" height="25.34"/>
          <rect class="cls-12" x="183.78" y="106.71" width="7.29" height="7.44" transform="translate(297.85 -76.99) rotate(90)"/>
        </g>
        <line class="cls-18" x1="93.66" y1="157.13" x2="92.66" y2="158.35"/>
      </g>
      <g>
        <polygon class="cls-11" points="33.28 49.63 5.58 99.35 301.42 99.35 273.8 49.49 33.28 49.63"/>
        <g class="cls-4">
          <g>
            <path class="cls-10" d="M20.47,97.12l-1.51-.44c-3.77-1.11-7.78-1.11-11.55,0l-1.51,.44v-21.6h0c4.48-2.71,10.08-2.71,14.56,0h0v21.6Z"/>
            <path class="cls-63" d="M35.27,97.12l-1.51-.44c-3.77-1.11-7.78-1.11-11.55,0l-1.51,.44v-21.6h0c4.48-2.71,10.08-2.71,14.56,0h0v21.6Z"/>
            <path class="cls-26" d="M50.07,97.12l-1.51-.44c-3.77-1.11-7.78-1.11-11.55,0l-1.51,.44v-21.6h0c4.48-2.71,10.08-2.71,14.56,0h0v21.6Z"/>
            <path class="cls-40" d="M64.87,97.12l-1.51-.44c-3.77-1.11-7.78-1.11-11.55,0l-1.51,.44v-21.6h0c4.48-2.71,10.08-2.71,14.56,0h0v21.6Z"/>
            <path class="cls-63" d="M79.67,97.12l-1.51-.44c-3.77-1.11-7.78-1.11-11.55,0l-1.51,.44v-21.6h0c4.48-2.71,10.08-2.71,14.56,0h0v21.6Z"/>
            <path class="cls-26" d="M94.47,97.12l-1.51-.44c-3.77-1.11-7.78-1.11-11.55,0l-1.51,.44v-21.6h0c4.48-2.71,10.08-2.71,14.56,0h0v21.6Z"/>
            <path class="cls-48" d="M109.27,97.12l-1.51-.44c-3.77-1.11-7.78-1.11-11.55,0l-1.51,.44v-21.6h0c4.48-2.71,10.08-2.71,14.56,0h0v21.6Z"/>
            <path class="cls-63" d="M124.07,97.12l-1.51-.44c-3.77-1.11-7.78-1.11-11.55,0l-1.51,.44v-21.6h0c4.48-2.71,10.08-2.71,14.56,0h0v21.6Z"/>
            <path class="cls-26" d="M138.87,97.12l-1.51-.44c-3.77-1.11-7.78-1.11-11.55,0l-1.51,.44v-21.6h0c4.48-2.71,10.08-2.71,14.56,0h0v21.6Z"/>
            <path class="cls-7" d="M153.67,97.12l-1.51-.44c-3.77-1.11-7.78-1.11-11.55,0l-1.51,.44v-21.6h0c4.48-2.71,10.08-2.71,14.56,0h0v21.6Z"/>
            <path class="cls-63" d="M168.47,97.12l-1.51-.44c-3.77-1.11-7.78-1.11-11.55,0l-1.51,.44v-21.6h0c4.48-2.71,10.08-2.71,14.56,0h0v21.6Z"/>
            <path class="cls-26" d="M183.27,97.12l-1.51-.44c-3.77-1.11-7.78-1.11-11.55,0l-1.51,.44v-21.6h0c4.48-2.71,10.08-2.71,14.56,0h0v21.6Z"/>
            <path class="cls-20" d="M198.07,97.12l-1.51-.44c-3.77-1.11-7.78-1.11-11.55,0l-1.51,.44v-21.6h0c4.48-2.71,10.08-2.71,14.56,0h0v21.6Z"/>
            <path class="cls-63" d="M212.87,97.12l-1.51-.44c-3.77-1.11-7.78-1.11-11.55,0l-1.51,.44v-21.6h0c4.48-2.71,10.08-2.71,14.56,0h0v21.6Z"/>
            <path class="cls-26" d="M227.67,97.12l-1.51-.44c-3.77-1.11-7.78-1.11-11.55,0l-1.51,.44v-21.6h0c4.48-2.71,10.08-2.71,14.56,0h0v21.6Z"/>
            <path class="cls-29" d="M242.47,97.12l-1.51-.44c-3.77-1.11-7.78-1.11-11.55,0l-1.51,.44v-21.6h0c4.48-2.71,10.08-2.71,14.56,0h0v21.6Z"/>
            <path class="cls-63" d="M257.27,97.12l-1.51-.44c-3.77-1.11-7.78-1.11-11.55,0l-1.51,.44v-21.6h0c4.48-2.71,10.08-2.71,14.56,0h0v21.6Z"/>
            <path class="cls-26" d="M272.07,97.12l-1.51-.44c-3.77-1.11-7.78-1.11-11.55,0l-1.51,.44v-21.6h0c4.48-2.71,10.08-2.71,14.56,0h0v21.6Z"/>
            <path class="cls-6" d="M286.87,97.12l-1.51-.44c-3.77-1.11-7.78-1.11-11.55,0l-1.51,.44v-21.6h0c4.48-2.71,10.08-2.71,14.56,0h0v21.6Z"/>
            <path class="cls-63" d="M301.67,97.12l-1.51-.44c-3.77-1.11-7.78-1.11-11.55,0l-1.51,.44v-21.6h0c4.48-2.71,10.08-2.71,14.56,0h0v21.6Z"/>
          </g>
          <g>
            <path class="cls-53" d="M20.47,73.01l-1.51-.44c-3.77-1.11-7.78-1.11-11.55,0l-1.51,.44v-21.6h0c4.48-2.71,10.08-2.71,14.56,0h0v21.6Z"/>
            <path class="cls-47" d="M35.27,73.01l-1.51-.44c-3.77-1.11-7.78-1.11-11.55,0l-1.51,.44v-21.6h0c4.48-2.71,10.08-2.71,14.56,0h0v21.6Z"/>
            <path class="cls-63" d="M50.07,73.01l-1.51-.44c-3.77-1.11-7.78-1.11-11.55,0l-1.51,.44v-21.6h0c4.48-2.71,10.08-2.71,14.56,0h0v21.6Z"/>
            <path class="cls-26" d="M64.87,73.01l-1.51-.44c-3.77-1.11-7.78-1.11-11.55,0l-1.51,.44v-21.6h0c4.48-2.71,10.08-2.71,14.56,0h0v21.6Z"/>
            <path class="cls-28" d="M79.67,73.01l-1.51-.44c-3.77-1.11-7.78-1.11-11.55,0l-1.51,.44v-21.6h0c4.48-2.71,10.08-2.71,14.56,0h0v21.6Z"/>
            <path class="cls-63" d="M94.47,73.01l-1.51-.44c-3.77-1.11-7.78-1.11-11.55,0l-1.51,.44v-21.6h0c4.48-2.71,10.08-2.71,14.56,0h0v21.6Z"/>
            <path class="cls-26" d="M109.27,73.01l-1.51-.44c-3.77-1.11-7.78-1.11-11.55,0l-1.51,.44v-21.6h0c4.48-2.71,10.08-2.71,14.56,0h0v21.6Z"/>
            <path class="cls-66" d="M124.07,73.01l-1.51-.44c-3.77-1.11-7.78-1.11-11.55,0l-1.51,.44v-21.6h0c4.48-2.71,10.08-2.71,14.56,0h0v21.6Z"/>
            <path class="cls-63" d="M138.87,73.01l-1.51-.44c-3.77-1.11-7.78-1.11-11.55,0l-1.51,.44v-21.6h0c4.48-2.71,10.08-2.71,14.56,0h0v21.6Z"/>
            <path class="cls-26" d="M153.67,73.01l-1.51-.44c-3.77-1.11-7.78-1.11-11.55,0l-1.51,.44v-21.6h0c4.48-2.71,10.08-2.71,14.56,0h0v21.6Z"/>
            <path class="cls-60" d="M168.47,73.01l-1.51-.44c-3.77-1.11-7.78-1.11-11.55,0l-1.51,.44v-21.6h0c4.48-2.71,10.08-2.71,14.56,0h0v21.6Z"/>
            <path class="cls-63" d="M183.27,73.01l-1.51-.44c-3.77-1.11-7.78-1.11-11.55,0l-1.51,.44v-21.6h0c4.48-2.71,10.08-2.71,14.56,0h0v21.6Z"/>
            <path class="cls-26" d="M198.07,73.01l-1.51-.44c-3.77-1.11-7.78-1.11-11.55,0l-1.51,.44v-21.6h0c4.48-2.71,10.08-2.71,14.56,0h0v21.6Z"/>
            <path class="cls-56" d="M212.87,73.01l-1.51-.44c-3.77-1.11-7.78-1.11-11.55,0l-1.51,.44v-21.6h0c4.48-2.71,10.08-2.71,14.56,0h0v21.6Z"/>
            <path class="cls-63" d="M227.67,73.01l-1.51-.44c-3.77-1.11-7.78-1.11-11.55,0l-1.51,.44v-21.6h0c4.48-2.71,10.08-2.71,14.56,0h0v21.6Z"/>
            <path class="cls-26" d="M242.47,73.01l-1.51-.44c-3.77-1.11-7.78-1.11-11.55,0l-1.51,.44v-21.6h0c4.48-2.71,10.08-2.71,14.56,0h0v21.6Z"/>
            <path class="cls-61" d="M257.27,73.01l-1.51-.44c-3.77-1.11-7.78-1.11-11.55,0l-1.51,.44v-21.6h0c4.48-2.71,10.08-2.71,14.56,0h0v21.6Z"/>
            <path class="cls-63" d="M272.07,73.01l-1.51-.44c-3.77-1.11-7.78-1.11-11.55,0l-1.51,.44v-21.6h0c4.48-2.71,10.08-2.71,14.56,0h0v21.6Z"/>
            <path class="cls-26" d="M286.87,73.01l-1.51-.44c-3.77-1.11-7.78-1.11-11.55,0l-1.51,.44v-21.6h0c4.48-2.71,10.08-2.71,14.56,0h0v21.6Z"/>
            <path class="cls-35" d="M301.67,73.01l-1.51-.44c-3.77-1.11-7.78-1.11-11.55,0l-1.51,.44v-21.6h0c4.48-2.71,10.08-2.71,14.56,0h0v21.6Z"/>
          </g>
        </g>
        <polygon class="cls-15" points="33.28 49.63 5.58 99.35 301.42 99.35 273.8 49.49 33.28 49.63"/>
      </g>
    </g>
    <g>
      <g>
        <path class="cls-8" d="M66.21,232h26.59c7.84,0,14.21,6.37,14.21,14.21v15.79H52v-15.79c0-7.84,6.37-14.21,14.21-14.21Z"/>
        <circle class="cls-9" cx="80.5" cy="238.5" r="4.5"/>
        <circle class="cls-9" cx="85.5" cy="248.5" r="4.5"/>
        <circle class="cls-9" cx="92.5" cy="239.5" r="4.5"/>
      </g>
      <g>
        <path class="cls-9" d="M182.21,247h26.59c7.84,0,14.21,6.37,14.21,14.21v15.79h-55v-15.79c0-7.84,6.37-14.21,14.21-14.21Z"/>
        <path class="cls-8" d="M135.91,238h37.18c4.92,0,8.91,3.99,8.91,8.91v30.09h-55v-30.09c0-4.92,3.99-8.91,8.91-8.91Z"/>
        <circle class="cls-8" cx="208.5" cy="254.5" r="4.5"/>
        <circle class="cls-9" cx="162.5" cy="245.5" r="4.5"/>
        <circle class="cls-9" cx="167.5" cy="255.5" r="4.5"/>
        <circle class="cls-9" cx="174.5" cy="246.5" r="4.5"/>
        <path class="cls-8" d="M196,227h55v30.09c0,4.92-3.99,8.91-8.91,8.91h-37.18c-4.92,0-8.91-3.99-8.91-8.91v-30.09h0Z" transform="translate(447 493) rotate(180)"/>
        <circle class="cls-9" cx="215.5" cy="234.5" r="4.5"/>
        <circle class="cls-9" cx="210.5" cy="244.5" r="4.5"/>
        <circle class="cls-9" cx="203.5" cy="235.5" r="4.5"/>
      </g>
      <g>
        <path class="cls-9" d="M100.91,244h37.18c4.92,0,8.91,3.99,8.91,8.91v22.09h-55v-22.09c0-4.92,3.99-8.91,8.91-8.91Z"/>
        <circle class="cls-8" cx="130" cy="261" r="6"/>
      </g>
    </g>
  </g>
</svg>