<svg xmlns="http://www.w3.org/2000/svg" xmlns:xlink="http://www.w3.org/1999/xlink" viewBox="0 0 56.05 30.93"><defs><style>.cls-1{fill:url(#Degradado_sin_nombre_2);}.cls-2{fill:none;}.cls-3{fill:#15d1c6;}.cls-4{fill:#fcbc19;}.cls-5{fill:#7d51a8;}.cls-6{fill:#ff4d69;}.cls-7{fill:#0e97a8;}.cls-8{clip-path:url(#clip-path);}.cls-9{mask:url(#mask);}.cls-10{fill:url(#Degradado_sin_nombre);}.cls-11{fill:#005f98;}.cls-12{clip-path:url(#clip-path-2);}.cls-13{fill:url(#Degradado_sin_nombre_3);}.cls-14{clip-path:url(#clip-path-3);}.cls-15{fill:url(#Degradado_sin_nombre_4);}</style><linearGradient id="Degradado_sin_nombre_2" x1="1090.91" y1="49.15" x2="1091.91" y2="49.15" gradientTransform="matrix(0, -30.93, -30.93, 0, 1547.93, 33768.1)" gradientUnits="userSpaceOnUse"><stop offset="0"/><stop offset="0.04" stop-color="#090909"/><stop offset="0.11" stop-color="#212121"/><stop offset="0.2" stop-color="#494949"/><stop offset="0.3" stop-color="gray"/><stop offset="0.41" stop-color="#c6c6c6"/><stop offset="0.5" stop-color="#fff"/><stop offset="0.59" stop-color="#c6c6c6"/><stop offset="0.7" stop-color="gray"/><stop offset="0.8" stop-color="#494949"/><stop offset="0.89" stop-color="#212121"/><stop offset="0.96" stop-color="#090909"/><stop offset="1"/></linearGradient><clipPath id="clip-path" transform="translate(0 0)"><path class="cls-2" d="M27.92,0A15.36,15.36,0,0,0,12.56,15.36v.1A15.47,15.47,0,1,0,28,0Z"/></clipPath><mask id="mask" x="12.56" y="0" width="30.93" height="30.93" maskUnits="userSpaceOnUse"><g transform="translate(0 0)"><rect class="cls-1" x="12.56" width="30.93" height="30.93"/></g></mask><linearGradient id="Degradado_sin_nombre" x1="1090.91" y1="49.15" x2="1091.91" y2="49.15" gradientTransform="matrix(0, -30.93, -30.93, 0, 1547.93, 33768.1)" gradientUnits="userSpaceOnUse"><stop offset="0" stop-color="#fff"/><stop offset="0.5" stop-color="#fff"/><stop offset="1" stop-color="#fff"/></linearGradient><clipPath id="clip-path-2" transform="translate(0 0)"><polygon class="cls-2" points="28.13 10.48 27.18 15.87 24.59 10.48 21.77 10.48 20.95 15.11 23.34 15.11 23.61 13.55 26.52 19.57 28.91 19.57 30.51 10.48 28.13 10.48"/></clipPath><linearGradient id="Degradado_sin_nombre_3" x1="1112.38" y1="-169.19" x2="1113.38" y2="-169.19" gradientTransform="matrix(-8.85, 0, 0, 8.85, 9875.63, 1512.04)" gradientUnits="userSpaceOnUse"><stop offset="0" stop-color="#fff"/><stop offset="0.35" stop-color="#9cc1d7"/><stop offset="0.67" stop-color="#488cb5"/><stop offset="0.89" stop-color="#146ca0"/><stop offset="1" stop-color="#005f98"/></linearGradient><clipPath id="clip-path-3" transform="translate(0 0)"><polygon class="cls-2" points="15.36 11 13.7 20.36 16.09 20.36 17.08 14.76 19.79 20.36 22.45 20.36 23.24 15.9 20.86 15.9 20.65 17.07 17.74 11 15.36 11"/></clipPath><linearGradient id="Degradado_sin_nombre_4" x1="1123.36" y1="-142.3" x2="1124.36" y2="-142.3" gradientTransform="matrix(-10.36, 0, 0, 10.36, 11657.55, 1489.38)" gradientUnits="userSpaceOnUse"><stop offset="0" stop-color="#fff"/><stop offset="0.05" stop-color="#e1ecf3"/><stop offset="0.15" stop-color="#adccde"/><stop offset="0.26" stop-color="#7fafcb"/><stop offset="0.37" stop-color="#5896bb"/><stop offset="0.48" stop-color="#3882af"/><stop offset="0.6" stop-color="#1f73a5"/><stop offset="0.72" stop-color="#0e689e"/><stop offset="0.85" stop-color="#036199"/><stop offset="1" stop-color="#005f98"/></linearGradient></defs><g id="Capa_2" data-name="Capa 2"><g id="Capa_1-2" data-name="Capa 1"><path class="cls-3" d="M34.21,15.46a6,6,0,0,1-.09,1.05,13.81,13.81,0,0,1,1.42.77,7.64,7.64,0,0,0-.17-4.23c-.53,0-1.06.07-1.59.14a6.15,6.15,0,0,1,.43,2.27" transform="translate(0 0)"/><path class="cls-3" d="M31.12,15.46v.07a14.72,14.72,0,0,1,1.52.4,3.62,3.62,0,0,0,0-.47,4.66,4.66,0,0,0-.42-1.94,13.56,13.56,0,0,0-1.48.5,3,3,0,0,1,.36,1.44" transform="translate(0 0)"/><path class="cls-3" d="M40.4,15.46a12.28,12.28,0,0,1-1.16,5.22,12.51,12.51,0,0,1,1,1.51,13.81,13.81,0,0,0,1.73-6.73c0-.31,0-.62,0-.92a12.24,12.24,0,0,0-1.62-.71,12.63,12.63,0,0,1,.11,1.63" transform="translate(0 0)"/><path class="cls-3" d="M33.41,26.6a12.94,12.94,0,0,1-.18,1.77,14,14,0,0,0,7-6.18,12.51,12.51,0,0,0-1-1.51,12.37,12.37,0,0,1-5.83,5.92" transform="translate(0 0)"/><path class="cls-3" d="M30.3,17.56a14.07,14.07,0,0,1,.94,1.25,4.62,4.62,0,0,0,1.4-2.88,14.72,14.72,0,0,0-1.52-.4,3.14,3.14,0,0,1-.82,2" transform="translate(0 0)"/><path class="cls-4" d="M28.11,24.74a14.93,14.93,0,0,1-.83,1.52q.38,0,.75,0a10.83,10.83,0,0,0,5.33-1.4,15.48,15.48,0,0,0-.26-1.66,9.19,9.19,0,0,1-5,1.51" transform="translate(0 0)"/><path class="cls-4" d="M29.08,16.6a1.37,1.37,0,0,0,.16-.18L29,16.2l.09.4" transform="translate(0 0)"/><path class="cls-4" d="M28,15.77l.29-.17-.18-.14a2.83,2.83,0,0,1-.11.31" transform="translate(0 0)"/><path class="cls-4" d="M26.24,27.71A12.38,12.38,0,0,1,19,24a12.79,12.79,0,0,1-1.74.36A13.84,13.84,0,0,0,25,29a12.26,12.26,0,0,0,1.27-1.33" transform="translate(0 0)"/><path class="cls-4" d="M28,24.74a9.22,9.22,0,0,1-5.86-2.08,13,13,0,0,1-1.5.74,10.73,10.73,0,0,0,6.61,2.86,13.93,13.93,0,0,0,.83-1.52H28" transform="translate(0 0)"/><path class="cls-4" d="M28.28,15.6l-.29.17c-.15.4-.31.78-.49,1.15A1.55,1.55,0,0,0,28,17a1.58,1.58,0,0,0,1-.41L29,16.2c-.23-.21-.47-.41-.71-.6" transform="translate(0 0)"/><path class="cls-4" d="M29.3,18.28a3,3,0,0,1-1.27.28,3.08,3.08,0,0,1-1.29-.28,14.12,14.12,0,0,1-.92,1.27A4.7,4.7,0,0,0,28,20.1a4.55,4.55,0,0,0,1.28-.18,12.83,12.83,0,0,0,0-1.64" transform="translate(0 0)"/><path class="cls-5" d="M37,13.1a15.7,15.7,0,0,1,1.65.26A10.84,10.84,0,0,0,35.5,7.63a12.26,12.26,0,0,0-1.41.81A9.26,9.26,0,0,1,37,13.1" transform="translate(0 0)"/><path class="cls-5" d="M29.36,14.68a1.31,1.31,0,0,0-.25-.32c-.09.2-.17.4-.25.61l.5-.29" transform="translate(0 0)"/><path class="cls-5" d="M28.58,15.15l.28-.18c.08-.21.16-.41.25-.61A1.51,1.51,0,0,0,28,13.92l-.3,0c0,.2.08.4.13.6.23.21.47.41.72.61" transform="translate(0 0)"/><path class="cls-5" d="M34.09,8.44a12.26,12.26,0,0,1,1.41-.81,10.82,10.82,0,0,0-6.11-2.91,12.29,12.29,0,0,0-.76,1.49,9.24,9.24,0,0,1,5.46,2.23" transform="translate(0 0)"/><path class="cls-5" d="M28,9.28a6.15,6.15,0,0,1,3.63,1.18A14.55,14.55,0,0,1,32.8,9.38a7.71,7.71,0,0,0-4.73-1.65,13.58,13.58,0,0,0-.36,1.56H28" transform="translate(0 0)"/><path class="cls-5" d="M27.86,14.54c.07.31.15.62.24.92l.48-.31c-.25-.2-.49-.4-.72-.61" transform="translate(0 0)"/><path class="cls-6" d="M27.54,12.41c0-.52,0-1,0-1.56a4.53,4.53,0,0,0-2.11.78,13.55,13.55,0,0,0,.88,1.26,3.18,3.18,0,0,1,1.24-.48" transform="translate(0 0)"/><path class="cls-6" d="M28,3.09a12.67,12.67,0,0,1,2.32.22A13.27,13.27,0,0,1,31.53,2a14.09,14.09,0,0,0-7.91.27A14.14,14.14,0,0,0,23.43,4,12.31,12.31,0,0,1,28,3.09" transform="translate(0 0)"/><path class="cls-6" d="M24.68,10.26A12.32,12.32,0,0,1,24.1,8.8a7.75,7.75,0,0,0-3.43,4.27A14.68,14.68,0,0,0,22,13.9a6.16,6.16,0,0,1,2.64-3.64" transform="translate(0 0)"/><path class="cls-6" d="M26.3,12.89a11.88,11.88,0,0,1-.88-1.26,4.59,4.59,0,0,0-1.94,2.93A12.18,12.18,0,0,0,25,15a3.14,3.14,0,0,1,1.34-2.15" transform="translate(0 0)"/><path class="cls-6" d="M23.43,4a14.14,14.14,0,0,1,.19-1.72A14,14,0,0,0,16.3,8a13,13,0,0,0,.88,1.54A12.37,12.37,0,0,1,23.43,4" transform="translate(0 0)"/><path class="cls-7" d="M18.75,15.46a9.34,9.34,0,0,1,.64-3.4,16.42,16.42,0,0,1-1.17-1.19,10.78,10.78,0,0,0-.88,6.31,13.38,13.38,0,0,0,1.64.37,9.56,9.56,0,0,1-.23-2.09" transform="translate(0 0)"/><path class="cls-7" d="M28.1,15.46a14.35,14.35,0,0,1-1.61-.12.49.49,0,0,0,0,.12,1.5,1.5,0,0,0,.33.95A12.34,12.34,0,0,0,28,15.77a2.83,2.83,0,0,0,.11-.31" transform="translate(0 0)"/><path class="cls-7" d="M19,17.55a13.38,13.38,0,0,1-1.64-.37,10.78,10.78,0,0,0,3.33,6.22,13,13,0,0,0,1.5-.74A9.31,9.31,0,0,1,19,17.55" transform="translate(0 0)"/><path class="cls-7" d="M26.81,16.41a1.48,1.48,0,0,0,.69.51c.18-.37.34-.75.49-1.15a12.34,12.34,0,0,1-1.18.64" transform="translate(0 0)"/><path class="cls-7" d="M23.53,21.75a13.4,13.4,0,0,0,1.22-1,6.17,6.17,0,0,1-2.51-3.05,13.86,13.86,0,0,1-1.44.05h-.18a7.76,7.76,0,0,0,2.91,4.05" transform="translate(0 0)"/><path class="cls-3" d="M41.94,15.46a13.92,13.92,0,0,1-1.73,6.73A12.41,12.41,0,0,1,41,23.88a15.45,15.45,0,0,0,2.49-8.39,12.72,12.72,0,0,0-1.58-1c0,.3,0,.61,0,.92" transform="translate(0 0)"/><path class="cls-3" d="M33.23,28.37a14.41,14.41,0,0,1-.43,1.81,15.55,15.55,0,0,0,8.2-6.3,12.41,12.41,0,0,0-.79-1.69,14,14,0,0,1-7,6.18" transform="translate(0 0)"/><path class="cls-4" d="M28,29.38A14,14,0,0,1,25,29a13.48,13.48,0,0,1-1.51,1.2,15.32,15.32,0,0,0,4.57.69,15.71,15.71,0,0,0,4.77-.75,14.41,14.41,0,0,0,.43-1.81,13.84,13.84,0,0,1-5.2,1" transform="translate(0 0)"/><path class="cls-4" d="M17.3,24.33a12.69,12.69,0,0,1-1.85.13,15.56,15.56,0,0,0,8,5.78A12.42,12.42,0,0,0,25,29a13.84,13.84,0,0,1-7.67-4.71" transform="translate(0 0)"/><path class="cls-5" d="M40.47,6.29a13,13,0,0,0-1.77.24,13.87,13.87,0,0,1,3.21,8,12.72,12.72,0,0,1,1.58,1v0a15.37,15.37,0,0,0-3-9.17" transform="translate(0 0)"/><path class="cls-5" d="M38.7,6.53a13,13,0,0,1,1.77-.24A15.48,15.48,0,0,0,32.92.79,14.53,14.53,0,0,0,31.52,2,13.92,13.92,0,0,1,38.7,6.53" transform="translate(0 0)"/><path class="cls-6" d="M28,1.55a14,14,0,0,1,3.5.44,12.46,12.46,0,0,1,1.4-1.2A15.57,15.57,0,0,0,28,0a15.35,15.35,0,0,0-4,.52,11.64,11.64,0,0,0-.43,1.74A14,14,0,0,1,28,1.55" transform="translate(0 0)"/><path class="cls-6" d="M23.62,2.26A11.64,11.64,0,0,1,24.05.52,15.5,15.5,0,0,0,15.6,6.26,12.78,12.78,0,0,0,16.3,8a14,14,0,0,1,7.32-5.71" transform="translate(0 0)"/><path class="cls-7" d="M14.11,15.46A13.79,13.79,0,0,1,16.3,8a12.78,12.78,0,0,1-.7-1.71,15.46,15.46,0,0,0-3,8.43,13.24,13.24,0,0,0,1.53,1.08v-.31" transform="translate(0 0)"/><path class="cls-7" d="M14.11,15.77a13.24,13.24,0,0,1-1.53-1.08c0,.26,0,.51,0,.77a15.36,15.36,0,0,0,2.89,9,12.69,12.69,0,0,0,1.85-.13,13.86,13.86,0,0,1-3.19-8.56" transform="translate(0 0)"/><path class="cls-3" d="M38.85,15.46a11,11,0,0,1-.72,3.91,12.6,12.6,0,0,1,1.11,1.31,12.28,12.28,0,0,0,1.16-5.22,12.63,12.63,0,0,0-.11-1.63,13.86,13.86,0,0,0-1.64-.47,11.16,11.16,0,0,1,.2,2.1" transform="translate(0 0)"/><path class="cls-5" d="M35.5,7.63A13.87,13.87,0,0,1,37,7a12.4,12.4,0,0,0-6.69-3.68,13.46,13.46,0,0,0-1,1.41A10.85,10.85,0,0,1,35.5,7.63" transform="translate(0 0)"/><path class="cls-6" d="M23.46,5.65a11.67,11.67,0,0,1,0-1.67,12.33,12.33,0,0,0-6.25,5.53,15.27,15.27,0,0,0,1,1.36,10.85,10.85,0,0,1,5.24-5.22" transform="translate(0 0)"/><path class="cls-7" d="M17.34,17.18a13.14,13.14,0,0,1-1.63-.58A12.33,12.33,0,0,0,19.05,24a12,12,0,0,0,1.62-.57,10.78,10.78,0,0,1-3.33-6.22" transform="translate(0 0)"/><path class="cls-3" d="M35.37,13.05a7.64,7.64,0,0,1,.17,4.23c.35.22.69.45,1,.69l.33.26a9,9,0,0,0,.42-2.77A9.25,9.25,0,0,0,37,13.1c-.33,0-.67,0-1,0h-.62" transform="translate(0 0)"/><path class="cls-3" d="M35.54,17.28a7.73,7.73,0,0,1-2.89,4.38l.18.57c.1.33.19.67.27,1a9.22,9.22,0,0,0,3.78-5L36.55,18c-.32-.24-.66-.47-1-.69" transform="translate(0 0)"/><path class="cls-4" d="M28.71,23.16c-.22,0-.45,0-.68,0a7.69,7.69,0,0,1-4.5-1.44l-.4.3c-.32.21-.64.42-1,.61A9.22,9.22,0,0,0,28,24.74h.08a12.69,12.69,0,0,0,.48-1.21l.12-.37" transform="translate(0 0)"/><path class="cls-6" d="M24.1,8.8A7.69,7.69,0,0,1,28,7.73h0c.06-.19.12-.39.19-.58s.23-.63.37-.94c-.2,0-.4,0-.6,0a9.17,9.17,0,0,0-4.34,1.07,11.69,11.69,0,0,0,.3,1.2,3.38,3.38,0,0,0,.11.34" transform="translate(0 0)"/><path class="cls-6" d="M20.67,13.07A7.75,7.75,0,0,1,24.1,8.8,3.38,3.38,0,0,1,24,8.46a11.69,11.69,0,0,1-.3-1.2,9.3,9.3,0,0,0-4.3,4.8c.28.24.56.47.85.69l.43.32" transform="translate(0 0)"/><path class="cls-4" d="M29.31,19.92a14.51,14.51,0,0,1-.2,1.63A6.12,6.12,0,0,0,32,20.19a13.5,13.5,0,0,0-.78-1.38,4.61,4.61,0,0,1-1.93,1.11" transform="translate(0 0)"/><path class="cls-4" d="M29.11,21.55a14.51,14.51,0,0,0,.2-1.63A4.55,4.55,0,0,1,28,20.1a4.7,4.7,0,0,1-2.21-.55,11.76,11.76,0,0,1-1.07,1.16,6.19,6.19,0,0,0,3.28.94,5.49,5.49,0,0,0,1.08-.1" transform="translate(0 0)"/><path class="cls-5" d="M32.24,13.52a13.62,13.62,0,0,1,1.54-.33,6.14,6.14,0,0,0-2.12-2.73,12.74,12.74,0,0,0-1,1.19,4.69,4.69,0,0,1,1.57,1.87" transform="translate(0 0)"/><path class="cls-5" d="M28,10.82a4.62,4.62,0,0,1,2.64.83,12.74,12.74,0,0,1,1-1.19A6.15,6.15,0,0,0,28,9.28h-.32a13.29,13.29,0,0,0-.18,1.56,4.07,4.07,0,0,1,.5,0" transform="translate(0 0)"/><path class="cls-7" d="M23.39,15.46a4.43,4.43,0,0,1,.09-.9A11.76,11.76,0,0,1,22,13.9a6.22,6.22,0,0,0,.2,3.76,14,14,0,0,0,1.58-.24,4.57,4.57,0,0,1-.43-2" transform="translate(0 0)"/><path class="cls-7" d="M25.82,19.55a4.69,4.69,0,0,1-2-2.13,14,14,0,0,1-1.58.24,6.17,6.17,0,0,0,2.51,3.05,11.76,11.76,0,0,0,1.07-1.16" transform="translate(0 0)"/><path class="cls-3" d="M29.57,15.32a13.42,13.42,0,0,1,1.55.21v-.07A3,3,0,0,0,30.76,14a13.65,13.65,0,0,0-1.4.66,1.73,1.73,0,0,1,.21.64" transform="translate(0 0)"/><path class="cls-5" d="M28,13.92a1.55,1.55,0,0,1,1.08.44,11.75,11.75,0,0,1,.71-1.42A3.1,3.1,0,0,0,28,12.37a2.63,2.63,0,0,0-.49,0c0,.51.1,1,.19,1.54l.3,0" transform="translate(0 0)"/><path class="cls-6" d="M27.35,14.07a14.74,14.74,0,0,1-1.05-1.18A3.14,3.14,0,0,0,25,15a13.17,13.17,0,0,0,1.52.3,1.56,1.56,0,0,1,.87-1.27" transform="translate(0 0)"/><path class="cls-7" d="M26.81,16.41a14,14,0,0,1-1.46.6,3.16,3.16,0,0,0,1.39,1.27,13.89,13.89,0,0,0,.76-1.36,1.48,1.48,0,0,1-.69-.51" transform="translate(0 0)"/><g class="cls-8"><g class="cls-9"><rect class="cls-10" x="12.56" width="30.93" height="30.93"/></g></g><path class="cls-11" d="M5.87,10.49c2.33,0,3.86,1.31,4,3.43H7.3a1.76,1.76,0,0,0-1.84-1.23,3.05,3.05,0,0,0-2.94,2.79c-.31,1.7.5,2.8,2,2.8A2.68,2.68,0,0,0,6.75,17H9.37a5.63,5.63,0,0,1-5.25,3.41c-2.88,0-4.54-2.05-4-5a5.87,5.87,0,0,1,5.78-5" transform="translate(0 0)"/><polygon class="cls-11" points="11.81 10.6 14.2 10.6 12.47 20.38 10.09 20.38 11.81 10.6"/><path class="cls-11" d="M39.75,15.49a5.84,5.84,0,0,1-6,4.89H30.1l1.73-9.78h3.66c3.12,0,4.78,2,4.26,4.89M34,18.35a3.22,3.22,0,0,0,3.36-2.86c.32-1.8-.54-2.85-2.34-2.85H33.85l-1,5.71Z" transform="translate(0 0)"/><polygon class="cls-11" points="47.31 12.48 43.7 12.48 43.36 14.52 46.55 14.52 46.23 16.31 43.04 16.31 42.65 18.5 46.25 18.5 45.92 20.38 39.93 20.38 41.66 10.6 47.65 10.6 47.31 12.48"/><polygon class="cls-11" points="48.49 10.6 56.05 10.6 55.73 12.48 53.13 12.48 51.73 20.38 49.35 20.38 50.75 12.48 48.16 12.48 48.49 10.6"/><g class="cls-12"><rect class="cls-13" x="20.85" y="9.93" width="9.76" height="10.2" transform="translate(8.89 39.61) rotate(-85.87)"/></g><g class="cls-14"><rect class="cls-15" x="13.06" y="10.2" width="10.82" height="10.97" transform="translate(-0.08 31.27) rotate(-80.37)"/></g></g></g></svg>