<svg xmlns="http://www.w3.org/2000/svg" viewBox="0 0 136.31 136.32"><defs><style>.cls-1{fill:#fff;fill-rule:evenodd;}</style></defs><g id="Capa_2" data-name="Capa 2"><g id="Capa_1-2" data-name="Capa 1"><path class="cls-1" d="M68.18,126.55a58.37,58.37,0,1,1,58.37-58.37,58.37,58.37,0,0,1-58.37,58.37M68.16,0a68.16,68.16,0,1,0,68.15,68.16A68.16,68.16,0,0,0,68.16,0Z"/><path class="cls-1" d="M101,24.18A55.17,55.17,0,0,0,24.41,35h0L47.2,48.81h0c5-8.71,12.31-15.07,21.37-17.26,20.3-4.9,19.14,14.93,8.87,16.34-9.16,1.25-14.71-5.6-14.71-5.6L56,48.36s12.6,17.27,35,14c21.45-3.12,23.2-28.48,10-38.16Z"/><path class="cls-1" d="M67.4,123.16A55.18,55.18,0,0,1,22.2,37.93l0,0,23.3,14v0c-6.06,12.83-5.82,28-4.18,39.21s9.09,16.56,13,14.22S59,95.66,58.54,82.58A149.61,149.61,0,0,0,55.48,58h0L67.4,65.18v58Z"/><path class="cls-1" d="M111.78,34.82a55.19,55.19,0,0,1-19.63,82.8h0l-9.77-10.51v14.22h0a54.49,54.49,0,0,1-11.66,1.87h0V67.66l9.53,5.75c4.43,27.3,12.17,29.35,12.17,29.35,13.31-16.34,6.78-39.63,7-39.67,5.83-1.17,18.18-12.38,12.38-28.24Z"/></g></g></svg>